<?xml version="1.0" encoding="UTF-8" standalone="no"?>
<!DOCTYPE svg PUBLIC "-//W3C//DTD SVG 1.1//EN"
 "http://www.w3.org/Graphics/SVG/1.1/DTD/svg11.dtd">
<!-- Generated by graphviz version 2.43.0 (0)
 -->
<!-- Title: moteus::MotorDriver Pages: 1 -->
<svg width="221pt" height="336pt"
 viewBox="0.00 0.00 221.00 336.00" xmlns="http://www.w3.org/2000/svg" xmlns:xlink="http://www.w3.org/1999/xlink">
<g id="graph0" class="graph" transform="scale(1 1) rotate(0) translate(4 332)">
<title>moteus::MotorDriver</title>
<polygon fill="white" stroke="transparent" points="-4,4 -4,-332 217,-332 217,4 -4,4"/>
<!-- Node1 -->
<g id="node1" class="node">
<title>Node1</title>
<g id="a_node1"><a xlink:title=" ">
<polygon fill="#bfbfbf" stroke="black" points="41,-226.5 41,-327.5 172,-327.5 172,-226.5 41,-226.5"/>
<text text-anchor="middle" x="106.5" y="-315.5" font-family="Helvetica,sans-Serif" font-size="10.00">moteus::MotorDriver</text>
<polyline fill="none" stroke="black" points="41,-308.5 172,-308.5 "/>
<text text-anchor="middle" x="106.5" y="-296.5" font-family="Helvetica,sans-Serif" font-size="10.00"> </text>
<polyline fill="none" stroke="black" points="41,-289.5 172,-289.5 "/>
<text text-anchor="start" x="49" y="-277.5" font-family="Helvetica,sans-Serif" font-size="10.00">+ virtual void Enable</text>
<text text-anchor="start" x="49" y="-266.5" font-family="Helvetica,sans-Serif" font-size="10.00">(bool)=0</text>
<text text-anchor="start" x="49" y="-255.5" font-family="Helvetica,sans-Serif" font-size="10.00">+ virtual void Power</text>
<text text-anchor="start" x="49" y="-244.5" font-family="Helvetica,sans-Serif" font-size="10.00">(bool)=0</text>
<text text-anchor="start" x="49" y="-233.5" font-family="Helvetica,sans-Serif" font-size="10.00">+ virtual bool fault()=0</text>
</a>
</g>
</g>
<!-- Node2 -->
<g id="node2" class="node">
<title>Node2</title>
<g id="a_node2"><a xlink:href="$da/dd3/classmoteus_1_1Drv8323.html" xlink:title=" ">
<polygon fill="white" stroke="black" points="0,-0.5 0,-189.5 213,-189.5 213,-0.5 0,-0.5"/>
<text text-anchor="middle" x="106.5" y="-177.5" font-family="Helvetica,sans-Serif" font-size="10.00">moteus::Drv8323</text>
<polyline fill="none" stroke="black" points="0,-170.5 213,-170.5 "/>
<text text-anchor="middle" x="106.5" y="-158.5" font-family="Helvetica,sans-Serif" font-size="10.00"> </text>
<polyline fill="none" stroke="black" points="0,-151.5 213,-151.5 "/>
<text text-anchor="start" x="8" y="-139.5" font-family="Helvetica,sans-Serif" font-size="10.00">+ Drv8323(mjlib::micro</text>
<text text-anchor="start" x="8" y="-128.5" font-family="Helvetica,sans-Serif" font-size="10.00">::Pool *, mjlib::micro</text>
<text text-anchor="start" x="8" y="-117.5" font-family="Helvetica,sans-Serif" font-size="10.00">::PersistentConfig *persistent</text>
<text text-anchor="start" x="8" y="-106.5" font-family="Helvetica,sans-Serif" font-size="10.00">_config, mjlib::micro::TelemetryManager</text>
<text text-anchor="start" x="8" y="-95.5" font-family="Helvetica,sans-Serif" font-size="10.00"> *telemetry_manager, MillisecondTimer</text>
<text text-anchor="start" x="8" y="-84.5" font-family="Helvetica,sans-Serif" font-size="10.00"> *timer, const Options &amp;)</text>
<text text-anchor="start" x="8" y="-73.5" font-family="Helvetica,sans-Serif" font-size="10.00">+ ~Drv8323()</text>
<text text-anchor="start" x="8" y="-62.5" font-family="Helvetica,sans-Serif" font-size="10.00">+ void Enable(bool) override</text>
<text text-anchor="start" x="8" y="-51.5" font-family="Helvetica,sans-Serif" font-size="10.00">+ void Power(bool) override</text>
<text text-anchor="start" x="8" y="-40.5" font-family="Helvetica,sans-Serif" font-size="10.00">+ bool fault() override</text>
<text text-anchor="start" x="8" y="-29.5" font-family="Helvetica,sans-Serif" font-size="10.00">+ void PollMillisecond()</text>
<text text-anchor="start" x="8" y="-18.5" font-family="Helvetica,sans-Serif" font-size="10.00">+ const Status * status</text>
<text text-anchor="start" x="8" y="-7.5" font-family="Helvetica,sans-Serif" font-size="10.00">() const</text>
</a>
</g>
</g>
<!-- Node1&#45;&gt;Node2 -->
<g id="edge1" class="edge">
<title>Node1&#45;&gt;Node2</title>
<path fill="none" stroke="midnightblue" d="M106.5,-216.16C106.5,-207.63 106.5,-198.69 106.5,-189.7"/>
<polygon fill="none" stroke="midnightblue" points="103,-216.34 106.5,-226.34 110,-216.34 103,-216.34"/>
</g>
</g>
</svg>
