<?xml version="1.0" encoding="UTF-8" standalone="no"?>
<!DOCTYPE svg PUBLIC "-//W3C//DTD SVG 1.1//EN"
 "http://www.w3.org/Graphics/SVG/1.1/DTD/svg11.dtd">
<!-- Generated by graphviz version 2.43.0 (0)
 -->
<!-- Title: moteus::Stm32Spi::Options Pages: 1 -->
<svg width="157pt" height="281pt"
 viewBox="0.00 0.00 157.00 281.00" xmlns="http://www.w3.org/2000/svg" xmlns:xlink="http://www.w3.org/1999/xlink">
<g id="graph0" class="graph" transform="scale(1 1) rotate(0) translate(4 277)">
<title>moteus::Stm32Spi::Options</title>
<polygon fill="white" stroke="transparent" points="-4,4 -4,-277 153,-277 153,4 -4,4"/>
<!-- Node1 -->
<g id="node1" class="node">
<title>Node1</title>
<g id="a_node1"><a xlink:title=" ">
<polygon fill="#bfbfbf" stroke="black" points="0,-94.5 0,-272.5 149,-272.5 149,-94.5 0,-94.5"/>
<text text-anchor="middle" x="74.5" y="-260.5" font-family="Helvetica,sans-Serif" font-size="10.00">moteus::Stm32Spi::Options</text>
<polyline fill="none" stroke="black" points="0,-253.5 149,-253.5 "/>
<text text-anchor="start" x="8" y="-241.5" font-family="Helvetica,sans-Serif" font-size="10.00">+ PinName mosi</text>
<text text-anchor="start" x="8" y="-230.5" font-family="Helvetica,sans-Serif" font-size="10.00">+ PinName miso</text>
<text text-anchor="start" x="8" y="-219.5" font-family="Helvetica,sans-Serif" font-size="10.00">+ PinName sck</text>
<text text-anchor="start" x="8" y="-208.5" font-family="Helvetica,sans-Serif" font-size="10.00">+ PinName cs</text>
<text text-anchor="start" x="8" y="-197.5" font-family="Helvetica,sans-Serif" font-size="10.00">+ int frequency</text>
<text text-anchor="start" x="8" y="-186.5" font-family="Helvetica,sans-Serif" font-size="10.00">+ int width</text>
<text text-anchor="start" x="8" y="-175.5" font-family="Helvetica,sans-Serif" font-size="10.00">+ int mode</text>
<text text-anchor="start" x="8" y="-164.5" font-family="Helvetica,sans-Serif" font-size="10.00">+ uint16_t timeout</text>
<text text-anchor="start" x="8" y="-153.5" font-family="Helvetica,sans-Serif" font-size="10.00">+ DMA_Channel_TypeDef</text>
<text text-anchor="start" x="8" y="-142.5" font-family="Helvetica,sans-Serif" font-size="10.00"> * rx_dma</text>
<text text-anchor="start" x="8" y="-131.5" font-family="Helvetica,sans-Serif" font-size="10.00">+ DMA_Channel_TypeDef</text>
<text text-anchor="start" x="8" y="-120.5" font-family="Helvetica,sans-Serif" font-size="10.00"> * tx_dma</text>
<polyline fill="none" stroke="black" points="0,-113.5 149,-113.5 "/>
<text text-anchor="middle" x="74.5" y="-101.5" font-family="Helvetica,sans-Serif" font-size="10.00"> </text>
</a>
</g>
</g>
<!-- Node2 -->
<g id="node2" class="node">
<title>Node2</title>
<g id="a_node2"><a xlink:href="$df/d2b/structmoteus_1_1IcPz_1_1Options.html" xlink:title=" ">
<polygon fill="white" stroke="black" points="6,-0.5 6,-57.5 143,-57.5 143,-0.5 6,-0.5"/>
<text text-anchor="middle" x="74.5" y="-45.5" font-family="Helvetica,sans-Serif" font-size="10.00">moteus::IcPz::Options</text>
<polyline fill="none" stroke="black" points="6,-38.5 143,-38.5 "/>
<text text-anchor="start" x="14" y="-26.5" font-family="Helvetica,sans-Serif" font-size="10.00">+ uint8_t resolution_bits</text>
<polyline fill="none" stroke="black" points="6,-19.5 143,-19.5 "/>
<text text-anchor="middle" x="74.5" y="-7.5" font-family="Helvetica,sans-Serif" font-size="10.00"> </text>
</a>
</g>
</g>
<!-- Node1&#45;&gt;Node2 -->
<g id="edge1" class="edge">
<title>Node1&#45;&gt;Node2</title>
<path fill="none" stroke="midnightblue" d="M74.5,-84.17C74.5,-74.66 74.5,-65.65 74.5,-57.81"/>
<polygon fill="none" stroke="midnightblue" points="71,-84.23 74.5,-94.23 78,-84.23 71,-84.23"/>
</g>
</g>
</svg>
