<?xml version="1.0" encoding="UTF-8" standalone="no"?>
<!DOCTYPE svg PUBLIC "-//W3C//DTD SVG 1.1//EN"
 "http://www.w3.org/Graphics/SVG/1.1/DTD/svg11.dtd">
<!-- Generated by graphviz version 2.43.0 (0)
 -->
<!-- Title: moteus::BldcServo::Control Pages: 1 -->
<svg width="164pt" height="281pt"
 viewBox="0.00 0.00 164.00 281.00" xmlns="http://www.w3.org/2000/svg" xmlns:xlink="http://www.w3.org/1999/xlink">
<g id="graph0" class="graph" transform="scale(1 1) rotate(0) translate(4 277)">
<title>moteus::BldcServo::Control</title>
<polygon fill="white" stroke="transparent" points="-4,4 -4,-277 160,-277 160,4 -4,4"/>
<!-- Node1 -->
<g id="node1" class="node">
<title>Node1</title>
<g id="a_node1"><a xlink:title=" ">
<polygon fill="#bfbfbf" stroke="black" points="2,-0.5 2,-134.5 154,-134.5 154,-0.5 2,-0.5"/>
<text text-anchor="start" x="10" y="-122.5" font-family="Helvetica,sans-Serif" font-size="10.00">moteus::BldcServo::</text>
<text text-anchor="middle" x="78" y="-111.5" font-family="Helvetica,sans-Serif" font-size="10.00">Control</text>
<polyline fill="none" stroke="black" points="2,-104.5 154,-104.5 "/>
<text text-anchor="start" x="10" y="-92.5" font-family="Helvetica,sans-Serif" font-size="10.00">+ float d_V</text>
<text text-anchor="start" x="10" y="-81.5" font-family="Helvetica,sans-Serif" font-size="10.00">+ float q_V</text>
<text text-anchor="start" x="10" y="-70.5" font-family="Helvetica,sans-Serif" font-size="10.00">+ float i_d_A</text>
<text text-anchor="start" x="10" y="-59.5" font-family="Helvetica,sans-Serif" font-size="10.00">+ float i_q_A</text>
<text text-anchor="start" x="10" y="-48.5" font-family="Helvetica,sans-Serif" font-size="10.00">+ float q_comp_A</text>
<text text-anchor="start" x="10" y="-37.5" font-family="Helvetica,sans-Serif" font-size="10.00">+ float torque_Nm</text>
<polyline fill="none" stroke="black" points="2,-30.5 154,-30.5 "/>
<text text-anchor="start" x="10" y="-18.5" font-family="Helvetica,sans-Serif" font-size="10.00">+ void Clear()</text>
<text text-anchor="start" x="10" y="-7.5" font-family="Helvetica,sans-Serif" font-size="10.00">+ void Serialize(Archive *a)</text>
</a>
</g>
</g>
<!-- Node2 -->
<g id="node2" class="node">
<title>Node2</title>
<g id="a_node2"><a xlink:href="../../df/dd1/structmoteus_1_1Vec3.html" target="_top" xlink:title=" ">
<polygon fill="white" stroke="black" points="0,-193.5 0,-272.5 156,-272.5 156,-193.5 0,-193.5"/>
<text text-anchor="middle" x="78" y="-260.5" font-family="Helvetica,sans-Serif" font-size="10.00">moteus::Vec3</text>
<polyline fill="none" stroke="black" points="0,-253.5 156,-253.5 "/>
<text text-anchor="start" x="8" y="-241.5" font-family="Helvetica,sans-Serif" font-size="10.00">+ float a</text>
<text text-anchor="start" x="8" y="-230.5" font-family="Helvetica,sans-Serif" font-size="10.00">+ float b</text>
<text text-anchor="start" x="8" y="-219.5" font-family="Helvetica,sans-Serif" font-size="10.00">+ float c</text>
<polyline fill="none" stroke="black" points="0,-212.5 156,-212.5 "/>
<text text-anchor="start" x="8" y="-200.5" font-family="Helvetica,sans-Serif" font-size="10.00">+ void Serialize(Archive *ar)</text>
</a>
</g>
</g>
<!-- Node2&#45;&gt;Node1 -->
<g id="edge1" class="edge">
<title>Node2&#45;&gt;Node1</title>
<path fill="none" stroke="#404040" d="M78,-193.25C78,-179.33 78,-163.08 78,-147"/>
<polygon fill="none" stroke="#404040" points="78,-146.78 74,-140.78 78,-134.78 82,-140.78 78,-146.78"/>
<text text-anchor="middle" x="101" y="-167" font-family="Helvetica,sans-Serif" font-size="10.00"> +pwm</text>
<text text-anchor="middle" x="101" y="-156" font-family="Helvetica,sans-Serif" font-size="10.00">+voltage</text>
</g>
</g>
</svg>
