<?xml version="1.0" encoding="UTF-8" standalone="no"?>
<!DOCTYPE svg PUBLIC "-//W3C//DTD SVG 1.1//EN"
 "http://www.w3.org/Graphics/SVG/1.1/DTD/svg11.dtd">
<!-- Generated by graphviz version 2.43.0 (0)
 -->
<!-- Title: moteus::Stm32G4Flash Pages: 1 -->
<svg width="166pt" height="248pt"
 viewBox="0.00 0.00 166.00 248.00" xmlns="http://www.w3.org/2000/svg" xmlns:xlink="http://www.w3.org/1999/xlink">
<g id="graph0" class="graph" transform="scale(1 1) rotate(0) translate(4 244)">
<title>moteus::Stm32G4Flash</title>
<polygon fill="white" stroke="transparent" points="-4,4 -4,-244 162,-244 162,4 -4,4"/>
<!-- Node1 -->
<g id="node1" class="node">
<title>Node1</title>
<g id="a_node1"><a xlink:title=" ">
<polygon fill="#bfbfbf" stroke="black" points="0,-0.5 0,-145.5 158,-145.5 158,-0.5 0,-0.5"/>
<text text-anchor="middle" x="79" y="-133.5" font-family="Helvetica,sans-Serif" font-size="10.00">moteus::Stm32G4Flash</text>
<polyline fill="none" stroke="black" points="0,-126.5 158,-126.5 "/>
<text text-anchor="middle" x="79" y="-114.5" font-family="Helvetica,sans-Serif" font-size="10.00"> </text>
<polyline fill="none" stroke="black" points="0,-107.5 158,-107.5 "/>
<text text-anchor="start" x="8" y="-95.5" font-family="Helvetica,sans-Serif" font-size="10.00">+ Stm32G4Flash()</text>
<text text-anchor="start" x="8" y="-84.5" font-family="Helvetica,sans-Serif" font-size="10.00">+ ~Stm32G4Flash() override</text>
<text text-anchor="start" x="8" y="-73.5" font-family="Helvetica,sans-Serif" font-size="10.00">+ Info GetInfo() override</text>
<text text-anchor="start" x="8" y="-62.5" font-family="Helvetica,sans-Serif" font-size="10.00">+ void Erase() override</text>
<text text-anchor="start" x="8" y="-51.5" font-family="Helvetica,sans-Serif" font-size="10.00">+ void Unlock() override</text>
<text text-anchor="start" x="8" y="-40.5" font-family="Helvetica,sans-Serif" font-size="10.00">+ void Lock() override</text>
<text text-anchor="start" x="8" y="-29.5" font-family="Helvetica,sans-Serif" font-size="10.00">+ void ProgramByte(char</text>
<text text-anchor="start" x="8" y="-18.5" font-family="Helvetica,sans-Serif" font-size="10.00"> *ptr, uint8_t value)</text>
<text text-anchor="start" x="8" y="-7.5" font-family="Helvetica,sans-Serif" font-size="10.00"> override</text>
</a>
</g>
</g>
<!-- Node2 -->
<g id="node2" class="node">
<title>Node2</title>
<g id="a_node2"><a xlink:title=" ">
<polygon fill="white" stroke="#bfbfbf" points="3.5,-182.5 3.5,-239.5 154.5,-239.5 154.5,-182.5 3.5,-182.5"/>
<text text-anchor="middle" x="79" y="-227.5" font-family="Helvetica,sans-Serif" font-size="10.00">mjlib::micro::FlashInterface</text>
<polyline fill="none" stroke="#bfbfbf" points="3.5,-220.5 154.5,-220.5 "/>
<text text-anchor="middle" x="79" y="-208.5" font-family="Helvetica,sans-Serif" font-size="10.00"> </text>
<polyline fill="none" stroke="#bfbfbf" points="3.5,-201.5 154.5,-201.5 "/>
<text text-anchor="middle" x="79" y="-189.5" font-family="Helvetica,sans-Serif" font-size="10.00"> </text>
</a>
</g>
</g>
<!-- Node2&#45;&gt;Node1 -->
<g id="edge1" class="edge">
<title>Node2&#45;&gt;Node1</title>
<path fill="none" stroke="midnightblue" d="M79,-172.36C79,-164 79,-154.87 79,-145.66"/>
<polygon fill="none" stroke="midnightblue" points="75.5,-172.48 79,-182.48 82.5,-172.48 75.5,-172.48"/>
</g>
</g>
</svg>
