<?xml version="1.0" encoding="UTF-8" standalone="no"?>
<!DOCTYPE svg PUBLIC "-//W3C//DTD SVG 1.1//EN"
 "http://www.w3.org/Graphics/SVG/1.1/DTD/svg11.dtd">
<!-- Generated by graphviz version 2.43.0 (0)
 -->
<!-- Title: moteus::aux::AuxStatus Pages: 1 -->
<svg width="1182pt" height="314pt"
 viewBox="0.00 0.00 1182.00 314.00" xmlns="http://www.w3.org/2000/svg" xmlns:xlink="http://www.w3.org/1999/xlink">
<g id="graph0" class="graph" transform="scale(1 1) rotate(0) translate(4 310)">
<title>moteus::aux::AuxStatus</title>
<polygon fill="white" stroke="transparent" points="-4,4 -4,-310 1178,-310 1178,4 -4,4"/>
<!-- Node1 -->
<g id="node1" class="node">
<title>Node1</title>
<g id="a_node1"><a xlink:title=" ">
<polygon fill="#bfbfbf" stroke="black" points="511,-0.5 511,-134.5 663,-134.5 663,-0.5 511,-0.5"/>
<text text-anchor="middle" x="587" y="-122.5" font-family="Helvetica,sans-Serif" font-size="10.00">moteus::aux::AuxStatus</text>
<polyline fill="none" stroke="black" points="511,-115.5 663,-115.5 "/>
<text text-anchor="start" x="519" y="-103.5" font-family="Helvetica,sans-Serif" font-size="10.00">+ AuxError error</text>
<text text-anchor="start" x="519" y="-92.5" font-family="Helvetica,sans-Serif" font-size="10.00">+ uint8_t gpio_bit_active</text>
<text text-anchor="start" x="519" y="-81.5" font-family="Helvetica,sans-Serif" font-size="10.00">+ std::array&lt; bool, 5</text>
<text text-anchor="start" x="519" y="-70.5" font-family="Helvetica,sans-Serif" font-size="10.00"> &gt; pins</text>
<text text-anchor="start" x="519" y="-59.5" font-family="Helvetica,sans-Serif" font-size="10.00">+ uint8_t analog_bit</text>
<text text-anchor="start" x="519" y="-48.5" font-family="Helvetica,sans-Serif" font-size="10.00">_active</text>
<text text-anchor="start" x="519" y="-37.5" font-family="Helvetica,sans-Serif" font-size="10.00">+ std::array&lt; float,</text>
<text text-anchor="start" x="519" y="-26.5" font-family="Helvetica,sans-Serif" font-size="10.00"> 5 &gt; analog_inputs</text>
<polyline fill="none" stroke="black" points="511,-19.5 663,-19.5 "/>
<text text-anchor="start" x="519" y="-7.5" font-family="Helvetica,sans-Serif" font-size="10.00">+ void Serialize(Archive *a)</text>
</a>
</g>
</g>
<!-- Node2 -->
<g id="node2" class="node">
<title>Node2</title>
<g id="a_node2"><a xlink:href="../../dc/d3a/structmoteus_1_1aux_1_1Index_1_1Status.html" target="_top" xlink:title=" ">
<polygon fill="white" stroke="black" points="0,-199 0,-289 152,-289 152,-199 0,-199"/>
<text text-anchor="start" x="8" y="-277" font-family="Helvetica,sans-Serif" font-size="10.00">moteus::aux::Index</text>
<text text-anchor="middle" x="76" y="-266" font-family="Helvetica,sans-Serif" font-size="10.00">::Status</text>
<polyline fill="none" stroke="black" points="0,-259 152,-259 "/>
<text text-anchor="start" x="8" y="-247" font-family="Helvetica,sans-Serif" font-size="10.00">+ bool active</text>
<text text-anchor="start" x="8" y="-236" font-family="Helvetica,sans-Serif" font-size="10.00">+ bool raw</text>
<text text-anchor="start" x="8" y="-225" font-family="Helvetica,sans-Serif" font-size="10.00">+ bool value</text>
<polyline fill="none" stroke="black" points="0,-218 152,-218 "/>
<text text-anchor="start" x="8" y="-206" font-family="Helvetica,sans-Serif" font-size="10.00">+ void Serialize(Archive *a)</text>
</a>
</g>
</g>
<!-- Node2&#45;&gt;Node1 -->
<g id="edge1" class="edge">
<title>Node2&#45;&gt;Node1</title>
<path fill="none" stroke="#404040" d="M131.38,-198.98C140.91,-192.67 150.98,-186.73 161,-182 271.65,-129.71 410.28,-98.46 498.76,-82.37"/>
<polygon fill="none" stroke="#404040" points="498.82,-82.36 504.02,-77.37 510.63,-80.25 505.43,-85.24 498.82,-82.36"/>
<text text-anchor="middle" x="247.5" y="-156" font-family="Helvetica,sans-Serif" font-size="10.00"> +index</text>
</g>
<!-- Node3 -->
<g id="node3" class="node">
<title>Node3</title>
<g id="a_node3"><a xlink:href="../../da/d40/structmoteus_1_1aux_1_1Spi_1_1Status.html" target="_top" xlink:title=" ">
<polygon fill="white" stroke="black" points="170,-199 170,-289 322,-289 322,-199 170,-199"/>
<text text-anchor="middle" x="246" y="-277" font-family="Helvetica,sans-Serif" font-size="10.00">moteus::aux::Spi::Status</text>
<polyline fill="none" stroke="black" points="170,-270 322,-270 "/>
<text text-anchor="start" x="178" y="-258" font-family="Helvetica,sans-Serif" font-size="10.00">+ bool active</text>
<text text-anchor="start" x="178" y="-247" font-family="Helvetica,sans-Serif" font-size="10.00">+ uint32_t value</text>
<text text-anchor="start" x="178" y="-236" font-family="Helvetica,sans-Serif" font-size="10.00">+ uint8_t nonce</text>
<text text-anchor="start" x="178" y="-225" font-family="Helvetica,sans-Serif" font-size="10.00">+ uint8_t ic_pz_bits</text>
<polyline fill="none" stroke="black" points="170,-218 322,-218 "/>
<text text-anchor="start" x="178" y="-206" font-family="Helvetica,sans-Serif" font-size="10.00">+ void Serialize(Archive *a)</text>
</a>
</g>
</g>
<!-- Node3&#45;&gt;Node1 -->
<g id="edge2" class="edge">
<title>Node3&#45;&gt;Node1</title>
<path fill="none" stroke="#404040" d="M304.41,-198.73C313.14,-192.81 322.17,-187.05 331,-182 385.03,-151.07 449.07,-122.68 499.58,-102.03"/>
<polygon fill="none" stroke="#404040" points="499.68,-101.99 503.74,-96.03 510.8,-97.48 506.74,-103.44 499.68,-101.99"/>
<text text-anchor="middle" x="399" y="-156" font-family="Helvetica,sans-Serif" font-size="10.00"> +spi</text>
</g>
<!-- Node4 -->
<g id="node4" class="node">
<title>Node4</title>
<g id="a_node4"><a xlink:href="../../dd/d5b/structmoteus_1_1aux_1_1Hall_1_1Status.html" target="_top" xlink:title=" ">
<polygon fill="white" stroke="black" points="340,-193.5 340,-294.5 492,-294.5 492,-193.5 340,-193.5"/>
<text text-anchor="start" x="348" y="-282.5" font-family="Helvetica,sans-Serif" font-size="10.00">moteus::aux::Hall::</text>
<text text-anchor="middle" x="416" y="-271.5" font-family="Helvetica,sans-Serif" font-size="10.00">Status</text>
<polyline fill="none" stroke="black" points="340,-264.5 492,-264.5 "/>
<text text-anchor="start" x="348" y="-252.5" font-family="Helvetica,sans-Serif" font-size="10.00">+ bool active</text>
<text text-anchor="start" x="348" y="-241.5" font-family="Helvetica,sans-Serif" font-size="10.00">+ uint8_t bits</text>
<text text-anchor="start" x="348" y="-230.5" font-family="Helvetica,sans-Serif" font-size="10.00">+ uint8_t count</text>
<text text-anchor="start" x="348" y="-219.5" font-family="Helvetica,sans-Serif" font-size="10.00">+ uint16_t error</text>
<polyline fill="none" stroke="black" points="340,-212.5 492,-212.5 "/>
<text text-anchor="start" x="348" y="-200.5" font-family="Helvetica,sans-Serif" font-size="10.00">+ void Serialize(Archive *a)</text>
</a>
</g>
</g>
<!-- Node4&#45;&gt;Node1 -->
<g id="edge3" class="edge">
<title>Node4&#45;&gt;Node1</title>
<path fill="none" stroke="#404040" d="M464.54,-193.46C479.76,-177.93 496.92,-160.43 513.46,-143.54"/>
<polygon fill="none" stroke="#404040" points="513.64,-143.36 514.99,-136.27 522.04,-134.79 520.7,-141.87 513.64,-143.36"/>
<text text-anchor="middle" x="517" y="-156" font-family="Helvetica,sans-Serif" font-size="10.00"> +hall</text>
</g>
<!-- Node5 -->
<g id="node5" class="node">
<title>Node5</title>
<g id="a_node5"><a xlink:href="../../d2/da7/structmoteus_1_1aux_1_1I2C_1_1Status.html" target="_top" xlink:title=" ">
<polygon fill="white" stroke="black" points="510.5,-210 510.5,-278 663.5,-278 663.5,-210 510.5,-210"/>
<text text-anchor="middle" x="587" y="-266" font-family="Helvetica,sans-Serif" font-size="10.00">moteus::aux::I2C::Status</text>
<polyline fill="none" stroke="black" points="510.5,-259 663.5,-259 "/>
<text text-anchor="start" x="518.5" y="-247" font-family="Helvetica,sans-Serif" font-size="10.00">+ std::array&lt; DeviceStatus,</text>
<text text-anchor="start" x="518.5" y="-236" font-family="Helvetica,sans-Serif" font-size="10.00"> 3 &gt; devices</text>
<polyline fill="none" stroke="black" points="510.5,-229 663.5,-229 "/>
<text text-anchor="start" x="518.5" y="-217" font-family="Helvetica,sans-Serif" font-size="10.00">+ void Serialize(Archive *a)</text>
</a>
</g>
</g>
<!-- Node5&#45;&gt;Node1 -->
<g id="edge4" class="edge">
<title>Node5&#45;&gt;Node1</title>
<path fill="none" stroke="#404040" d="M587,-209.77C587,-191.91 587,-169.08 587,-147"/>
<polygon fill="none" stroke="#404040" points="587,-146.85 583,-140.85 587,-134.85 591,-140.85 587,-146.85"/>
<text text-anchor="middle" x="600" y="-156" font-family="Helvetica,sans-Serif" font-size="10.00"> +i2c</text>
</g>
<!-- Node6 -->
<g id="node6" class="node">
<title>Node6</title>
<g id="a_node6"><a xlink:href="../../d3/db3/structmoteus_1_1aux_1_1Quadrature_1_1Status.html" target="_top" xlink:title=" ">
<polygon fill="white" stroke="black" points="682,-193.5 682,-294.5 834,-294.5 834,-193.5 682,-193.5"/>
<text text-anchor="start" x="690" y="-282.5" font-family="Helvetica,sans-Serif" font-size="10.00">moteus::aux::Quadrature</text>
<text text-anchor="middle" x="758" y="-271.5" font-family="Helvetica,sans-Serif" font-size="10.00">::Status</text>
<polyline fill="none" stroke="black" points="682,-264.5 834,-264.5 "/>
<text text-anchor="start" x="690" y="-252.5" font-family="Helvetica,sans-Serif" font-size="10.00">+ bool active</text>
<text text-anchor="start" x="690" y="-241.5" font-family="Helvetica,sans-Serif" font-size="10.00">+ uint8_t pins</text>
<text text-anchor="start" x="690" y="-230.5" font-family="Helvetica,sans-Serif" font-size="10.00">+ uint32_t value</text>
<text text-anchor="start" x="690" y="-219.5" font-family="Helvetica,sans-Serif" font-size="10.00">+ uint16_t error</text>
<polyline fill="none" stroke="black" points="682,-212.5 834,-212.5 "/>
<text text-anchor="start" x="690" y="-200.5" font-family="Helvetica,sans-Serif" font-size="10.00">+ void Serialize(Archive *a)</text>
</a>
</g>
</g>
<!-- Node6&#45;&gt;Node1 -->
<g id="edge5" class="edge">
<title>Node6&#45;&gt;Node1</title>
<path fill="none" stroke="#404040" d="M709.46,-193.46C694.24,-177.93 677.08,-160.43 660.54,-143.54"/>
<polygon fill="none" stroke="#404040" points="660.36,-143.36 653.3,-141.87 651.96,-134.79 659.01,-136.27 660.36,-143.36"/>
<text text-anchor="middle" x="710.5" y="-156" font-family="Helvetica,sans-Serif" font-size="10.00"> +quadrature</text>
</g>
<!-- Node7 -->
<g id="node7" class="node">
<title>Node7</title>
<g id="a_node7"><a xlink:href="../../da/d11/structmoteus_1_1aux_1_1SineCosine_1_1Status.html" target="_top" xlink:title=" ">
<polygon fill="white" stroke="black" points="852,-193.5 852,-294.5 1004,-294.5 1004,-193.5 852,-193.5"/>
<text text-anchor="start" x="860" y="-282.5" font-family="Helvetica,sans-Serif" font-size="10.00">moteus::aux::SineCosine</text>
<text text-anchor="middle" x="928" y="-271.5" font-family="Helvetica,sans-Serif" font-size="10.00">::Status</text>
<polyline fill="none" stroke="black" points="852,-264.5 1004,-264.5 "/>
<text text-anchor="start" x="860" y="-252.5" font-family="Helvetica,sans-Serif" font-size="10.00">+ bool active</text>
<text text-anchor="start" x="860" y="-241.5" font-family="Helvetica,sans-Serif" font-size="10.00">+ uint16_t sine_raw</text>
<text text-anchor="start" x="860" y="-230.5" font-family="Helvetica,sans-Serif" font-size="10.00">+ uint16_t cosine_raw</text>
<text text-anchor="start" x="860" y="-219.5" font-family="Helvetica,sans-Serif" font-size="10.00">+ uint16_t value</text>
<polyline fill="none" stroke="black" points="852,-212.5 1004,-212.5 "/>
<text text-anchor="start" x="860" y="-200.5" font-family="Helvetica,sans-Serif" font-size="10.00">+ void Serialize(Archive *a)</text>
</a>
</g>
</g>
<!-- Node7&#45;&gt;Node1 -->
<g id="edge6" class="edge">
<title>Node7&#45;&gt;Node1</title>
<path fill="none" stroke="#404040" d="M861.57,-193.4C855.4,-189.38 849.15,-185.52 843,-182 788.97,-151.07 724.93,-122.68 674.42,-102.03"/>
<polygon fill="none" stroke="#404040" points="674.32,-101.99 667.26,-103.44 663.2,-97.48 670.26,-96.03 674.32,-101.99"/>
<text text-anchor="middle" x="843.5" y="-156" font-family="Helvetica,sans-Serif" font-size="10.00"> +sine_cosine</text>
</g>
<!-- Node8 -->
<g id="node8" class="node">
<title>Node8</title>
<g id="a_node8"><a xlink:href="../../da/d0a/structmoteus_1_1aux_1_1UartEncoder_1_1Status.html" target="_top" xlink:title=" ">
<polygon fill="white" stroke="black" points="1022,-182.5 1022,-305.5 1174,-305.5 1174,-182.5 1022,-182.5"/>
<text text-anchor="start" x="1030" y="-293.5" font-family="Helvetica,sans-Serif" font-size="10.00">moteus::aux::UartEncoder</text>
<text text-anchor="middle" x="1098" y="-282.5" font-family="Helvetica,sans-Serif" font-size="10.00">::Status</text>
<polyline fill="none" stroke="black" points="1022,-275.5 1174,-275.5 "/>
<text text-anchor="start" x="1030" y="-263.5" font-family="Helvetica,sans-Serif" font-size="10.00">+ bool active</text>
<text text-anchor="start" x="1030" y="-252.5" font-family="Helvetica,sans-Serif" font-size="10.00">+ uint32_t value</text>
<text text-anchor="start" x="1030" y="-241.5" font-family="Helvetica,sans-Serif" font-size="10.00">+ uint8_t nonce</text>
<text text-anchor="start" x="1030" y="-230.5" font-family="Helvetica,sans-Serif" font-size="10.00">+ bool aksim2_err</text>
<text text-anchor="start" x="1030" y="-219.5" font-family="Helvetica,sans-Serif" font-size="10.00">+ bool aksim2_warn</text>
<text text-anchor="start" x="1030" y="-208.5" font-family="Helvetica,sans-Serif" font-size="10.00">+ uint16_t aksim2_status</text>
<polyline fill="none" stroke="black" points="1022,-201.5 1174,-201.5 "/>
<text text-anchor="start" x="1030" y="-189.5" font-family="Helvetica,sans-Serif" font-size="10.00">+ void Serialize(Archive *a)</text>
</a>
</g>
</g>
<!-- Node8&#45;&gt;Node1 -->
<g id="edge7" class="edge">
<title>Node8&#45;&gt;Node1</title>
<path fill="none" stroke="#404040" d="M1021.87,-186.48C1018.92,-184.9 1015.96,-183.4 1013,-182 902.35,-129.71 763.72,-98.46 675.24,-82.37"/>
<polygon fill="none" stroke="#404040" points="675.18,-82.36 668.57,-85.24 663.37,-80.25 669.98,-77.37 675.18,-82.36"/>
<text text-anchor="middle" x="984.5" y="-156" font-family="Helvetica,sans-Serif" font-size="10.00"> +uart</text>
</g>
</g>
</svg>
