<?xml version="1.0" encoding="UTF-8" standalone="no"?>
<!DOCTYPE svg PUBLIC "-//W3C//DTD SVG 1.1//EN"
 "http://www.w3.org/Graphics/SVG/1.1/DTD/svg11.dtd">
<!-- Generated by graphviz version 2.43.0 (0)
 -->
<!-- Title: moteus::aux::AuxConfig Pages: 1 -->
<!--zoomable 270 -->
<svg id="main" version="1.1" xmlns="http://www.w3.org/2000/svg" xmlns:xlink="http://www.w3.org/1999/xlink" xml:space="preserve" onload="init(evt)">
<style type="text/css"><![CDATA[
.edge:hover path { stroke: red; }
.edge:hover polygon { stroke: red; fill: red; }
]]></style>
<script type="text/javascript"><![CDATA[
var edges = document.getElementsByTagName('g');
if (edges && edges.length) {
  for (var i=0;i<edges.length;i++) {
    if (edges[i].id.substr(0,4)=='edge') {
      edges[i].setAttribute('class','edge');
    }
  }
}
]]></script>
        <defs>
                <circle id="rim" cx="0" cy="0" r="7"/>
                <circle id="rim2" cx="0" cy="0" r="3.5"/>
                <g id="zoomPlus">
                        <use xlink:href="#rim" fill="#404040">
                                <set attributeName="fill" to="#808080" begin="zoomplus.mouseover" end="zoomplus.mouseout"/>
                        </use>
                        <path d="M-4,0h8M0,-4v8" fill="none" stroke="white" stroke-width="1.5" pointer-events="none"/>
                </g>
                <g id="zoomMin">
                        <use xlink:href="#rim" fill="#404040">
                                <set attributeName="fill" to="#808080" begin="zoomminus.mouseover" end="zoomminus.mouseout"/>
                        </use>
                        <path d="M-4,0h8" fill="none" stroke="white" stroke-width="1.5" pointer-events="none"/>
                </g>
                <g id="dirArrow">
                        <path fill="none" stroke="white" stroke-width="1.5" d="M0,-3.0v7 M-2.5,-0.5L0,-3.0L2.5,-0.5"/>
                </g>
               <g id="resetDef">
                       <use xlink:href="#rim2" fill="#404040">
                               <set attributeName="fill" to="#808080" begin="reset.mouseover" end="reset.mouseout"/>
                       </use>
               </g>
        </defs>

<script type="text/javascript">
var viewWidth = 1182;
var viewHeight = 270;
var sectionId = 'dynsection-0';
</script>
<script xlink:href="../../svgpan.js"/>
<svg id="graph" class="graph">
<g id="viewport">
<title>moteus::aux::AuxConfig</title>
<polygon fill="white" stroke="transparent" points="-4,4 -4,-266 1177.5,-266 1177.5,4 -4,4"/>
<!-- Node1 -->
<g id="node1" class="node">
<title>Node1</title>
<g id="a_node1"><a xlink:title=" ">
<polygon fill="#bfbfbf" stroke="black" points="508,-0.5 508,-112.5 664,-112.5 664,-0.5 508,-0.5"/>
<text text-anchor="middle" x="586" y="-100.5" font-family="Helvetica,sans-Serif" font-size="10.00">moteus::aux::AuxConfig</text>
<polyline fill="none" stroke="black" points="508,-93.5 664,-93.5 "/>
<text text-anchor="start" x="516" y="-81.5" font-family="Helvetica,sans-Serif" font-size="10.00">+ int32_t i2c_startup</text>
<text text-anchor="start" x="516" y="-70.5" font-family="Helvetica,sans-Serif" font-size="10.00">_delay_ms</text>
<text text-anchor="start" x="516" y="-59.5" font-family="Helvetica,sans-Serif" font-size="10.00">+ std::array&lt; Pin, kNumPins</text>
<text text-anchor="start" x="516" y="-48.5" font-family="Helvetica,sans-Serif" font-size="10.00"> &gt; pins</text>
<text text-anchor="start" x="516" y="-37.5" font-family="Helvetica,sans-Serif" font-size="10.00">+ static constexpr size</text>
<text text-anchor="start" x="516" y="-26.5" font-family="Helvetica,sans-Serif" font-size="10.00">_t kNumPins</text>
<polyline fill="none" stroke="black" points="508,-19.5 664,-19.5 "/>
<text text-anchor="start" x="516" y="-7.5" font-family="Helvetica,sans-Serif" font-size="10.00">+ void Serialize(Archive *a)</text>
</a>
</g>
</g>
<!-- Node2 -->
<g id="node2" class="node">
<title>Node2</title>
<g id="a_node2"><a xlink:href="../../df/d13/structmoteus_1_1aux_1_1Index_1_1Config.html" target="_top" xlink:title=" ">
<polygon fill="white" stroke="black" points="0,-177 0,-245 152,-245 152,-177 0,-177"/>
<text text-anchor="start" x="8" y="-233" font-family="Helvetica,sans-Serif" font-size="10.00">moteus::aux::Index</text>
<text text-anchor="middle" x="76" y="-222" font-family="Helvetica,sans-Serif" font-size="10.00">::Config</text>
<polyline fill="none" stroke="black" points="0,-215 152,-215 "/>
<text text-anchor="start" x="8" y="-203" font-family="Helvetica,sans-Serif" font-size="10.00">+ bool enabled</text>
<polyline fill="none" stroke="black" points="0,-196 152,-196 "/>
<text text-anchor="start" x="8" y="-184" font-family="Helvetica,sans-Serif" font-size="10.00">+ void Serialize(Archive *a)</text>
</a>
</g>
</g>
<!-- Node2&#45;&gt;Node1 -->
<g id="edge1" class="edge">
<title>Node2&#45;&gt;Node1</title>
<path fill="none" stroke="#404040" d="M126.9,-176.8C137.85,-170.6 149.57,-164.62 161,-160 272.23,-115.03 408.13,-86.52 495.83,-71.28"/>
<polygon fill="none" stroke="#404040" points="496.05,-71.25 501.29,-66.29 507.87,-69.22 502.64,-74.18 496.05,-71.25"/>
<text text-anchor="middle" x="259.5" y="-134" font-family="Helvetica,sans-Serif" font-size="10.00"> +index</text>
</g>
<!-- Node3 -->
<g id="node3" class="node">
<title>Node3</title>
<g id="a_node3"><a xlink:href="../../df/dcc/structmoteus_1_1aux_1_1Spi_1_1Config.html" target="_top" xlink:title=" ">
<polygon fill="white" stroke="black" points="170,-177 170,-245 322,-245 322,-177 170,-177"/>
<text text-anchor="middle" x="246" y="-233" font-family="Helvetica,sans-Serif" font-size="10.00">moteus::aux::Spi::Config</text>
<polyline fill="none" stroke="black" points="170,-226 322,-226 "/>
<text text-anchor="start" x="178" y="-214" font-family="Helvetica,sans-Serif" font-size="10.00">+ Mode mode</text>
<text text-anchor="start" x="178" y="-203" font-family="Helvetica,sans-Serif" font-size="10.00">+ uint32_t rate_hz</text>
<polyline fill="none" stroke="black" points="170,-196 322,-196 "/>
<text text-anchor="start" x="178" y="-184" font-family="Helvetica,sans-Serif" font-size="10.00">+ void Serialize(Archive *a)</text>
</a>
</g>
</g>
<!-- Node3&#45;&gt;Node1 -->
<g id="edge2" class="edge">
<title>Node3&#45;&gt;Node1</title>
<path fill="none" stroke="#404040" d="M299.75,-176.76C309.98,-170.9 320.71,-165.06 331,-160 384.73,-133.58 447.05,-108.44 496.63,-89.67"/>
<polygon fill="none" stroke="#404040" points="496.74,-89.62 500.95,-83.77 507.97,-85.4 503.77,-91.25 496.74,-89.62"/>
<text text-anchor="middle" x="406" y="-134" font-family="Helvetica,sans-Serif" font-size="10.00"> +spi</text>
</g>
<!-- Node4 -->
<g id="node4" class="node">
<title>Node4</title>
<g id="a_node4"><a xlink:href="../../d1/ddf/structmoteus_1_1aux_1_1Hall_1_1Config.html" target="_top" xlink:title=" ">
<polygon fill="white" stroke="black" points="340,-171.5 340,-250.5 492,-250.5 492,-171.5 340,-171.5"/>
<text text-anchor="start" x="348" y="-238.5" font-family="Helvetica,sans-Serif" font-size="10.00">moteus::aux::Hall::</text>
<text text-anchor="middle" x="416" y="-227.5" font-family="Helvetica,sans-Serif" font-size="10.00">Config</text>
<polyline fill="none" stroke="black" points="340,-220.5 492,-220.5 "/>
<text text-anchor="start" x="348" y="-208.5" font-family="Helvetica,sans-Serif" font-size="10.00">+ bool enabled</text>
<text text-anchor="start" x="348" y="-197.5" font-family="Helvetica,sans-Serif" font-size="10.00">+ uint8_t polarity</text>
<polyline fill="none" stroke="black" points="340,-190.5 492,-190.5 "/>
<text text-anchor="start" x="348" y="-178.5" font-family="Helvetica,sans-Serif" font-size="10.00">+ void Serialize(Archive *a)</text>
</a>
</g>
</g>
<!-- Node4&#45;&gt;Node1 -->
<g id="edge3" class="edge">
<title>Node4&#45;&gt;Node1</title>
<path fill="none" stroke="#404040" d="M459.34,-171.12C476.41,-155.81 496.46,-137.83 515.5,-120.74"/>
<polygon fill="none" stroke="#404040" points="515.53,-120.72 517.32,-113.73 524.46,-112.71 522.66,-119.69 515.53,-120.72"/>
<text text-anchor="middle" x="516" y="-134" font-family="Helvetica,sans-Serif" font-size="10.00"> +hall</text>
</g>
<!-- Node5 -->
<g id="node5" class="node">
<title>Node5</title>
<g id="a_node5"><a xlink:href="../../de/d7b/structmoteus_1_1aux_1_1Quadrature_1_1Config.html" target="_top" xlink:title=" ">
<polygon fill="white" stroke="black" points="510,-171.5 510,-250.5 662,-250.5 662,-171.5 510,-171.5"/>
<text text-anchor="start" x="518" y="-238.5" font-family="Helvetica,sans-Serif" font-size="10.00">moteus::aux::Quadrature</text>
<text text-anchor="middle" x="586" y="-227.5" font-family="Helvetica,sans-Serif" font-size="10.00">::Config</text>
<polyline fill="none" stroke="black" points="510,-220.5 662,-220.5 "/>
<text text-anchor="start" x="518" y="-208.5" font-family="Helvetica,sans-Serif" font-size="10.00">+ bool enabled</text>
<text text-anchor="start" x="518" y="-197.5" font-family="Helvetica,sans-Serif" font-size="10.00">+ uint32_t cpr</text>
<polyline fill="none" stroke="black" points="510,-190.5 662,-190.5 "/>
<text text-anchor="start" x="518" y="-178.5" font-family="Helvetica,sans-Serif" font-size="10.00">+ void Serialize(Archive *a)</text>
</a>
</g>
</g>
<!-- Node5&#45;&gt;Node1 -->
<g id="edge4" class="edge">
<title>Node5&#45;&gt;Node1</title>
<path fill="none" stroke="#404040" d="M586,-171.12C586,-157.13 586,-140.9 586,-125.17"/>
<polygon fill="none" stroke="#404040" points="586,-124.71 582,-118.71 586,-112.71 590,-118.71 586,-124.71"/>
<text text-anchor="middle" x="618.5" y="-134" font-family="Helvetica,sans-Serif" font-size="10.00"> +quadrature</text>
</g>
<!-- Node6 -->
<g id="node6" class="node">
<title>Node6</title>
<g id="a_node6"><a xlink:href="../../de/da4/structmoteus_1_1aux_1_1UartEncoder_1_1Config.html" target="_top" xlink:title=" ">
<polygon fill="white" stroke="black" points="680,-160.5 680,-261.5 832,-261.5 832,-160.5 680,-160.5"/>
<text text-anchor="start" x="688" y="-249.5" font-family="Helvetica,sans-Serif" font-size="10.00">moteus::aux::UartEncoder</text>
<text text-anchor="middle" x="756" y="-238.5" font-family="Helvetica,sans-Serif" font-size="10.00">::Config</text>
<polyline fill="none" stroke="black" points="680,-231.5 832,-231.5 "/>
<text text-anchor="start" x="688" y="-219.5" font-family="Helvetica,sans-Serif" font-size="10.00">+ Mode mode</text>
<text text-anchor="start" x="688" y="-208.5" font-family="Helvetica,sans-Serif" font-size="10.00">+ int32_t baud_rate</text>
<text text-anchor="start" x="688" y="-197.5" font-family="Helvetica,sans-Serif" font-size="10.00">+ int32_t poll_rate_us</text>
<text text-anchor="start" x="688" y="-186.5" font-family="Helvetica,sans-Serif" font-size="10.00">+ bool rs422</text>
<polyline fill="none" stroke="black" points="680,-179.5 832,-179.5 "/>
<text text-anchor="start" x="688" y="-167.5" font-family="Helvetica,sans-Serif" font-size="10.00">+ void Serialize(Archive *a)</text>
</a>
</g>
</g>
<!-- Node6&#45;&gt;Node1 -->
<g id="edge5" class="edge">
<title>Node6&#45;&gt;Node1</title>
<path fill="none" stroke="#404040" d="M700.81,-160.49C686.68,-147.81 671.29,-134.01 656.5,-120.74"/>
<polygon fill="none" stroke="#404040" points="656.32,-120.58 649.18,-119.55 647.39,-112.57 654.53,-113.6 656.32,-120.58"/>
<text text-anchor="middle" x="692.5" y="-134" font-family="Helvetica,sans-Serif" font-size="10.00"> +uart</text>
</g>
<!-- Node7 -->
<g id="node7" class="node">
<title>Node7</title>
<g id="a_node7"><a xlink:href="../../d8/d92/structmoteus_1_1aux_1_1SineCosine_1_1Config.html" target="_top" xlink:title=" ">
<polygon fill="white" stroke="black" points="850,-171.5 850,-250.5 1002,-250.5 1002,-171.5 850,-171.5"/>
<text text-anchor="start" x="858" y="-238.5" font-family="Helvetica,sans-Serif" font-size="10.00">moteus::aux::SineCosine</text>
<text text-anchor="middle" x="926" y="-227.5" font-family="Helvetica,sans-Serif" font-size="10.00">::Config</text>
<polyline fill="none" stroke="black" points="850,-220.5 1002,-220.5 "/>
<text text-anchor="start" x="858" y="-208.5" font-family="Helvetica,sans-Serif" font-size="10.00">+ bool enabled</text>
<text text-anchor="start" x="858" y="-197.5" font-family="Helvetica,sans-Serif" font-size="10.00">+ uint16_t common</text>
<polyline fill="none" stroke="black" points="850,-190.5 1002,-190.5 "/>
<text text-anchor="start" x="858" y="-178.5" font-family="Helvetica,sans-Serif" font-size="10.00">+ void Serialize(Archive *a)</text>
</a>
</g>
</g>
<!-- Node7&#45;&gt;Node1 -->
<g id="edge6" class="edge">
<title>Node7&#45;&gt;Node1</title>
<path fill="none" stroke="#404040" d="M862.51,-171.28C855.34,-167.32 848.07,-163.47 841,-160 787.27,-133.58 724.95,-108.44 675.37,-89.67"/>
<polygon fill="none" stroke="#404040" points="675.26,-89.62 668.23,-91.25 664.03,-85.4 671.05,-83.77 675.26,-89.62"/>
<text text-anchor="middle" x="834.5" y="-134" font-family="Helvetica,sans-Serif" font-size="10.00"> +sine_cosine</text>
</g>
<!-- Node8 -->
<g id="node8" class="node">
<title>Node8</title>
<g id="a_node8"><a xlink:href="../../dc/d2a/structmoteus_1_1aux_1_1I2C_1_1Config.html" target="_top" xlink:title=" ">
<polygon fill="white" stroke="black" points="1020.5,-160.5 1020.5,-261.5 1173.5,-261.5 1173.5,-160.5 1020.5,-160.5"/>
<text text-anchor="middle" x="1097" y="-249.5" font-family="Helvetica,sans-Serif" font-size="10.00">moteus::aux::I2C::Config</text>
<polyline fill="none" stroke="black" points="1020.5,-242.5 1173.5,-242.5 "/>
<text text-anchor="start" x="1028.5" y="-230.5" font-family="Helvetica,sans-Serif" font-size="10.00">+ int32_t i2c_hz</text>
<text text-anchor="start" x="1028.5" y="-219.5" font-family="Helvetica,sans-Serif" font-size="10.00">+ int32_t i2c_mode</text>
<text text-anchor="start" x="1028.5" y="-208.5" font-family="Helvetica,sans-Serif" font-size="10.00">+ bool pullup</text>
<text text-anchor="start" x="1028.5" y="-197.5" font-family="Helvetica,sans-Serif" font-size="10.00">+ std::array&lt; DeviceConfig,</text>
<text text-anchor="start" x="1028.5" y="-186.5" font-family="Helvetica,sans-Serif" font-size="10.00"> 3 &gt; devices</text>
<polyline fill="none" stroke="black" points="1020.5,-179.5 1173.5,-179.5 "/>
<text text-anchor="start" x="1028.5" y="-167.5" font-family="Helvetica,sans-Serif" font-size="10.00">+ void Serialize(Archive *a)</text>
</a>
</g>
</g>
<!-- Node8&#45;&gt;Node1 -->
<g id="edge7" class="edge">
<title>Node8&#45;&gt;Node1</title>
<path fill="none" stroke="#404040" d="M1020.18,-163.93C1017.11,-162.54 1014.05,-161.22 1011,-160 899.66,-115.32 763.79,-86.74 676.12,-71.41"/>
<polygon fill="none" stroke="#404040" points="675.91,-71.37 669.31,-74.29 664.08,-69.33 670.67,-66.41 675.91,-71.37"/>
<text text-anchor="middle" x="968" y="-134" font-family="Helvetica,sans-Serif" font-size="10.00"> +i2c</text>
</g>
</g>
</svg>
        <g id="navigator" transform="translate(0 0)" fill="#404254">
                <rect fill="#f2f5e9" fill-opacity="0.5" stroke="#606060" stroke-width=".5" x="0" y="0" width="60" height="60"/>
                <use id="zoomplus" xlink:href="#zoomPlus" x="17" y="9" onmousedown="handleZoom(evt,'in')"/>
                <use id="zoomminus" xlink:href="#zoomMin" x="42" y="9" onmousedown="handleZoom(evt,'out')"/>
                <use id="reset" xlink:href="#resetDef" x="30" y="36" onmousedown="handleReset()"/>
                <g id="arrowUp" xlink:href="#dirArrow" transform="translate(30 24)" onmousedown="handlePan(0,-1)">
                  <use xlink:href="#rim" fill="#404040">
                        <set attributeName="fill" to="#808080" begin="arrowUp.mouseover" end="arrowUp.mouseout"/>
                  </use>
                  <path fill="none" stroke="white" stroke-width="1.5" d="M0,-3.0v7 M-2.5,-0.5L0,-3.0L2.5,-0.5"/>
                </g>
                <g id="arrowRight" xlink:href="#dirArrow" transform="rotate(90) translate(36 -43)" onmousedown="handlePan(1,0)">
                  <use xlink:href="#rim" fill="#404040">
                        <set attributeName="fill" to="#808080" begin="arrowRight.mouseover" end="arrowRight.mouseout"/>
                  </use>
                  <path fill="none" stroke="white" stroke-width="1.5" d="M0,-3.0v7 M-2.5,-0.5L0,-3.0L2.5,-0.5"/>
                </g>
                <g id="arrowDown" xlink:href="#dirArrow" transform="rotate(180) translate(-30 -48)" onmousedown="handlePan(0,1)">
                  <use xlink:href="#rim" fill="#404040">
                        <set attributeName="fill" to="#808080" begin="arrowDown.mouseover" end="arrowDown.mouseout"/>
                  </use>
                  <path fill="none" stroke="white" stroke-width="1.5" d="M0,-3.0v7 M-2.5,-0.5L0,-3.0L2.5,-0.5"/>
                </g>
                <g id="arrowLeft" xlink:href="#dirArrow" transform="rotate(270) translate(-36 17)" onmousedown="handlePan(-1,0)">
                  <use xlink:href="#rim" fill="#404040">
                        <set attributeName="fill" to="#808080" begin="arrowLeft.mouseover" end="arrowLeft.mouseout"/>
                  </use>
                  <path fill="none" stroke="white" stroke-width="1.5" d="M0,-3.0v7 M-2.5,-0.5L0,-3.0L2.5,-0.5"/>
                </g>
        </g>
        <svg viewBox="0 0 15 15" width="100%" height="30px" preserveAspectRatio="xMaxYMin meet">
         <g id="arrow_out" transform="scale(0.3 0.3)">
          <a xlink:href="structmoteus_1_1aux_1_1AuxConfig__coll__graph_org.svg" target="_base">
           <rect id="button" ry="5" rx="5" y="6" x="6" height="38" width="38"
                fill="#f2f5e9" fill-opacity="0.5" stroke="#606060" stroke-width="1.0"/>
           <path id="arrow"
             d="M 11.500037,31.436501 C 11.940474,20.09759 22.043105,11.32322 32.158766,21.979434 L 37.068811,17.246167 C 37.068811,17.246167 37.088388,32 37.088388,32 L 22.160133,31.978069 C 22.160133,31.978069 26.997745,27.140456 26.997745,27.140456 C 18.528582,18.264221 13.291696,25.230495 11.500037,31.436501 z"
             style="fill:#404040;"/>
          </a>
         </g>
        </svg>
</svg>
