<?xml version="1.0" encoding="UTF-8" standalone="no"?>
<!DOCTYPE svg PUBLIC "-//W3C//DTD SVG 1.1//EN"
 "http://www.w3.org/Graphics/SVG/1.1/DTD/svg11.dtd">
<!-- Generated by graphviz version 2.43.0 (0)
 -->
<!-- Title: moteus::aux::AuxConfig Pages: 1 -->
<svg width="1182pt" height="270pt"
 viewBox="0.00 0.00 1181.50 270.00" xmlns="http://www.w3.org/2000/svg" xmlns:xlink="http://www.w3.org/1999/xlink">
<g id="graph0" class="graph" transform="scale(1 1) rotate(0) translate(4 266)">
<title>moteus::aux::AuxConfig</title>
<polygon fill="white" stroke="transparent" points="-4,4 -4,-266 1177.5,-266 1177.5,4 -4,4"/>
<!-- Node1 -->
<g id="node1" class="node">
<title>Node1</title>
<g id="a_node1"><a xlink:title=" ">
<polygon fill="#bfbfbf" stroke="black" points="508,-0.5 508,-112.5 664,-112.5 664,-0.5 508,-0.5"/>
<text text-anchor="middle" x="586" y="-100.5" font-family="Helvetica,sans-Serif" font-size="10.00">moteus::aux::AuxConfig</text>
<polyline fill="none" stroke="black" points="508,-93.5 664,-93.5 "/>
<text text-anchor="start" x="516" y="-81.5" font-family="Helvetica,sans-Serif" font-size="10.00">+ int32_t i2c_startup</text>
<text text-anchor="start" x="516" y="-70.5" font-family="Helvetica,sans-Serif" font-size="10.00">_delay_ms</text>
<text text-anchor="start" x="516" y="-59.5" font-family="Helvetica,sans-Serif" font-size="10.00">+ std::array&lt; Pin, kNumPins</text>
<text text-anchor="start" x="516" y="-48.5" font-family="Helvetica,sans-Serif" font-size="10.00"> &gt; pins</text>
<text text-anchor="start" x="516" y="-37.5" font-family="Helvetica,sans-Serif" font-size="10.00">+ static constexpr size</text>
<text text-anchor="start" x="516" y="-26.5" font-family="Helvetica,sans-Serif" font-size="10.00">_t kNumPins</text>
<polyline fill="none" stroke="black" points="508,-19.5 664,-19.5 "/>
<text text-anchor="start" x="516" y="-7.5" font-family="Helvetica,sans-Serif" font-size="10.00">+ void Serialize(Archive *a)</text>
</a>
</g>
</g>
<!-- Node2 -->
<g id="node2" class="node">
<title>Node2</title>
<g id="a_node2"><a xlink:href="../../df/d13/structmoteus_1_1aux_1_1Index_1_1Config.html" target="_top" xlink:title=" ">
<polygon fill="white" stroke="black" points="0,-177 0,-245 152,-245 152,-177 0,-177"/>
<text text-anchor="start" x="8" y="-233" font-family="Helvetica,sans-Serif" font-size="10.00">moteus::aux::Index</text>
<text text-anchor="middle" x="76" y="-222" font-family="Helvetica,sans-Serif" font-size="10.00">::Config</text>
<polyline fill="none" stroke="black" points="0,-215 152,-215 "/>
<text text-anchor="start" x="8" y="-203" font-family="Helvetica,sans-Serif" font-size="10.00">+ bool enabled</text>
<polyline fill="none" stroke="black" points="0,-196 152,-196 "/>
<text text-anchor="start" x="8" y="-184" font-family="Helvetica,sans-Serif" font-size="10.00">+ void Serialize(Archive *a)</text>
</a>
</g>
</g>
<!-- Node2&#45;&gt;Node1 -->
<g id="edge1" class="edge">
<title>Node2&#45;&gt;Node1</title>
<path fill="none" stroke="#404040" d="M126.9,-176.8C137.85,-170.6 149.57,-164.62 161,-160 272.23,-115.03 408.13,-86.52 495.83,-71.28"/>
<polygon fill="none" stroke="#404040" points="496.05,-71.25 501.29,-66.29 507.87,-69.22 502.64,-74.18 496.05,-71.25"/>
<text text-anchor="middle" x="259.5" y="-134" font-family="Helvetica,sans-Serif" font-size="10.00"> +index</text>
</g>
<!-- Node3 -->
<g id="node3" class="node">
<title>Node3</title>
<g id="a_node3"><a xlink:href="../../df/dcc/structmoteus_1_1aux_1_1Spi_1_1Config.html" target="_top" xlink:title=" ">
<polygon fill="white" stroke="black" points="170,-177 170,-245 322,-245 322,-177 170,-177"/>
<text text-anchor="middle" x="246" y="-233" font-family="Helvetica,sans-Serif" font-size="10.00">moteus::aux::Spi::Config</text>
<polyline fill="none" stroke="black" points="170,-226 322,-226 "/>
<text text-anchor="start" x="178" y="-214" font-family="Helvetica,sans-Serif" font-size="10.00">+ Mode mode</text>
<text text-anchor="start" x="178" y="-203" font-family="Helvetica,sans-Serif" font-size="10.00">+ uint32_t rate_hz</text>
<polyline fill="none" stroke="black" points="170,-196 322,-196 "/>
<text text-anchor="start" x="178" y="-184" font-family="Helvetica,sans-Serif" font-size="10.00">+ void Serialize(Archive *a)</text>
</a>
</g>
</g>
<!-- Node3&#45;&gt;Node1 -->
<g id="edge2" class="edge">
<title>Node3&#45;&gt;Node1</title>
<path fill="none" stroke="#404040" d="M299.75,-176.76C309.98,-170.9 320.71,-165.06 331,-160 384.73,-133.58 447.05,-108.44 496.63,-89.67"/>
<polygon fill="none" stroke="#404040" points="496.74,-89.62 500.95,-83.77 507.97,-85.4 503.77,-91.25 496.74,-89.62"/>
<text text-anchor="middle" x="406" y="-134" font-family="Helvetica,sans-Serif" font-size="10.00"> +spi</text>
</g>
<!-- Node4 -->
<g id="node4" class="node">
<title>Node4</title>
<g id="a_node4"><a xlink:href="../../d1/ddf/structmoteus_1_1aux_1_1Hall_1_1Config.html" target="_top" xlink:title=" ">
<polygon fill="white" stroke="black" points="340,-171.5 340,-250.5 492,-250.5 492,-171.5 340,-171.5"/>
<text text-anchor="start" x="348" y="-238.5" font-family="Helvetica,sans-Serif" font-size="10.00">moteus::aux::Hall::</text>
<text text-anchor="middle" x="416" y="-227.5" font-family="Helvetica,sans-Serif" font-size="10.00">Config</text>
<polyline fill="none" stroke="black" points="340,-220.5 492,-220.5 "/>
<text text-anchor="start" x="348" y="-208.5" font-family="Helvetica,sans-Serif" font-size="10.00">+ bool enabled</text>
<text text-anchor="start" x="348" y="-197.5" font-family="Helvetica,sans-Serif" font-size="10.00">+ uint8_t polarity</text>
<polyline fill="none" stroke="black" points="340,-190.5 492,-190.5 "/>
<text text-anchor="start" x="348" y="-178.5" font-family="Helvetica,sans-Serif" font-size="10.00">+ void Serialize(Archive *a)</text>
</a>
</g>
</g>
<!-- Node4&#45;&gt;Node1 -->
<g id="edge3" class="edge">
<title>Node4&#45;&gt;Node1</title>
<path fill="none" stroke="#404040" d="M459.34,-171.12C476.41,-155.81 496.46,-137.83 515.5,-120.74"/>
<polygon fill="none" stroke="#404040" points="515.53,-120.72 517.32,-113.73 524.46,-112.71 522.66,-119.69 515.53,-120.72"/>
<text text-anchor="middle" x="516" y="-134" font-family="Helvetica,sans-Serif" font-size="10.00"> +hall</text>
</g>
<!-- Node5 -->
<g id="node5" class="node">
<title>Node5</title>
<g id="a_node5"><a xlink:href="../../de/d7b/structmoteus_1_1aux_1_1Quadrature_1_1Config.html" target="_top" xlink:title=" ">
<polygon fill="white" stroke="black" points="510,-171.5 510,-250.5 662,-250.5 662,-171.5 510,-171.5"/>
<text text-anchor="start" x="518" y="-238.5" font-family="Helvetica,sans-Serif" font-size="10.00">moteus::aux::Quadrature</text>
<text text-anchor="middle" x="586" y="-227.5" font-family="Helvetica,sans-Serif" font-size="10.00">::Config</text>
<polyline fill="none" stroke="black" points="510,-220.5 662,-220.5 "/>
<text text-anchor="start" x="518" y="-208.5" font-family="Helvetica,sans-Serif" font-size="10.00">+ bool enabled</text>
<text text-anchor="start" x="518" y="-197.5" font-family="Helvetica,sans-Serif" font-size="10.00">+ uint32_t cpr</text>
<polyline fill="none" stroke="black" points="510,-190.5 662,-190.5 "/>
<text text-anchor="start" x="518" y="-178.5" font-family="Helvetica,sans-Serif" font-size="10.00">+ void Serialize(Archive *a)</text>
</a>
</g>
</g>
<!-- Node5&#45;&gt;Node1 -->
<g id="edge4" class="edge">
<title>Node5&#45;&gt;Node1</title>
<path fill="none" stroke="#404040" d="M586,-171.12C586,-157.13 586,-140.9 586,-125.17"/>
<polygon fill="none" stroke="#404040" points="586,-124.71 582,-118.71 586,-112.71 590,-118.71 586,-124.71"/>
<text text-anchor="middle" x="618.5" y="-134" font-family="Helvetica,sans-Serif" font-size="10.00"> +quadrature</text>
</g>
<!-- Node6 -->
<g id="node6" class="node">
<title>Node6</title>
<g id="a_node6"><a xlink:href="../../de/da4/structmoteus_1_1aux_1_1UartEncoder_1_1Config.html" target="_top" xlink:title=" ">
<polygon fill="white" stroke="black" points="680,-160.5 680,-261.5 832,-261.5 832,-160.5 680,-160.5"/>
<text text-anchor="start" x="688" y="-249.5" font-family="Helvetica,sans-Serif" font-size="10.00">moteus::aux::UartEncoder</text>
<text text-anchor="middle" x="756" y="-238.5" font-family="Helvetica,sans-Serif" font-size="10.00">::Config</text>
<polyline fill="none" stroke="black" points="680,-231.5 832,-231.5 "/>
<text text-anchor="start" x="688" y="-219.5" font-family="Helvetica,sans-Serif" font-size="10.00">+ Mode mode</text>
<text text-anchor="start" x="688" y="-208.5" font-family="Helvetica,sans-Serif" font-size="10.00">+ int32_t baud_rate</text>
<text text-anchor="start" x="688" y="-197.5" font-family="Helvetica,sans-Serif" font-size="10.00">+ int32_t poll_rate_us</text>
<text text-anchor="start" x="688" y="-186.5" font-family="Helvetica,sans-Serif" font-size="10.00">+ bool rs422</text>
<polyline fill="none" stroke="black" points="680,-179.5 832,-179.5 "/>
<text text-anchor="start" x="688" y="-167.5" font-family="Helvetica,sans-Serif" font-size="10.00">+ void Serialize(Archive *a)</text>
</a>
</g>
</g>
<!-- Node6&#45;&gt;Node1 -->
<g id="edge5" class="edge">
<title>Node6&#45;&gt;Node1</title>
<path fill="none" stroke="#404040" d="M700.81,-160.49C686.68,-147.81 671.29,-134.01 656.5,-120.74"/>
<polygon fill="none" stroke="#404040" points="656.32,-120.58 649.18,-119.55 647.39,-112.57 654.53,-113.6 656.32,-120.58"/>
<text text-anchor="middle" x="692.5" y="-134" font-family="Helvetica,sans-Serif" font-size="10.00"> +uart</text>
</g>
<!-- Node7 -->
<g id="node7" class="node">
<title>Node7</title>
<g id="a_node7"><a xlink:href="../../d8/d92/structmoteus_1_1aux_1_1SineCosine_1_1Config.html" target="_top" xlink:title=" ">
<polygon fill="white" stroke="black" points="850,-171.5 850,-250.5 1002,-250.5 1002,-171.5 850,-171.5"/>
<text text-anchor="start" x="858" y="-238.5" font-family="Helvetica,sans-Serif" font-size="10.00">moteus::aux::SineCosine</text>
<text text-anchor="middle" x="926" y="-227.5" font-family="Helvetica,sans-Serif" font-size="10.00">::Config</text>
<polyline fill="none" stroke="black" points="850,-220.5 1002,-220.5 "/>
<text text-anchor="start" x="858" y="-208.5" font-family="Helvetica,sans-Serif" font-size="10.00">+ bool enabled</text>
<text text-anchor="start" x="858" y="-197.5" font-family="Helvetica,sans-Serif" font-size="10.00">+ uint16_t common</text>
<polyline fill="none" stroke="black" points="850,-190.5 1002,-190.5 "/>
<text text-anchor="start" x="858" y="-178.5" font-family="Helvetica,sans-Serif" font-size="10.00">+ void Serialize(Archive *a)</text>
</a>
</g>
</g>
<!-- Node7&#45;&gt;Node1 -->
<g id="edge6" class="edge">
<title>Node7&#45;&gt;Node1</title>
<path fill="none" stroke="#404040" d="M862.51,-171.28C855.34,-167.32 848.07,-163.47 841,-160 787.27,-133.58 724.95,-108.44 675.37,-89.67"/>
<polygon fill="none" stroke="#404040" points="675.26,-89.62 668.23,-91.25 664.03,-85.4 671.05,-83.77 675.26,-89.62"/>
<text text-anchor="middle" x="834.5" y="-134" font-family="Helvetica,sans-Serif" font-size="10.00"> +sine_cosine</text>
</g>
<!-- Node8 -->
<g id="node8" class="node">
<title>Node8</title>
<g id="a_node8"><a xlink:href="../../dc/d2a/structmoteus_1_1aux_1_1I2C_1_1Config.html" target="_top" xlink:title=" ">
<polygon fill="white" stroke="black" points="1020.5,-160.5 1020.5,-261.5 1173.5,-261.5 1173.5,-160.5 1020.5,-160.5"/>
<text text-anchor="middle" x="1097" y="-249.5" font-family="Helvetica,sans-Serif" font-size="10.00">moteus::aux::I2C::Config</text>
<polyline fill="none" stroke="black" points="1020.5,-242.5 1173.5,-242.5 "/>
<text text-anchor="start" x="1028.5" y="-230.5" font-family="Helvetica,sans-Serif" font-size="10.00">+ int32_t i2c_hz</text>
<text text-anchor="start" x="1028.5" y="-219.5" font-family="Helvetica,sans-Serif" font-size="10.00">+ int32_t i2c_mode</text>
<text text-anchor="start" x="1028.5" y="-208.5" font-family="Helvetica,sans-Serif" font-size="10.00">+ bool pullup</text>
<text text-anchor="start" x="1028.5" y="-197.5" font-family="Helvetica,sans-Serif" font-size="10.00">+ std::array&lt; DeviceConfig,</text>
<text text-anchor="start" x="1028.5" y="-186.5" font-family="Helvetica,sans-Serif" font-size="10.00"> 3 &gt; devices</text>
<polyline fill="none" stroke="black" points="1020.5,-179.5 1173.5,-179.5 "/>
<text text-anchor="start" x="1028.5" y="-167.5" font-family="Helvetica,sans-Serif" font-size="10.00">+ void Serialize(Archive *a)</text>
</a>
</g>
</g>
<!-- Node8&#45;&gt;Node1 -->
<g id="edge7" class="edge">
<title>Node8&#45;&gt;Node1</title>
<path fill="none" stroke="#404040" d="M1020.18,-163.93C1017.11,-162.54 1014.05,-161.22 1011,-160 899.66,-115.32 763.79,-86.74 676.12,-71.41"/>
<polygon fill="none" stroke="#404040" points="675.91,-71.37 669.31,-74.29 664.08,-69.33 670.67,-66.41 675.91,-71.37"/>
<text text-anchor="middle" x="968" y="-134" font-family="Helvetica,sans-Serif" font-size="10.00"> +i2c</text>
</g>
</g>
</svg>
