<?xml version="1.0" encoding="UTF-8" standalone="no"?>
<!DOCTYPE svg PUBLIC "-//W3C//DTD SVG 1.1//EN"
 "http://www.w3.org/Graphics/SVG/1.1/DTD/svg11.dtd">
<!-- Generated by graphviz version 2.43.0 (0)
 -->
<!-- Title: moteus::FDCan::FilterConfig Pages: 1 -->
<svg width="161pt" height="303pt"
 viewBox="0.00 0.00 161.00 303.00" xmlns="http://www.w3.org/2000/svg" xmlns:xlink="http://www.w3.org/1999/xlink">
<g id="graph0" class="graph" transform="scale(1 1) rotate(0) translate(4 299)">
<title>moteus::FDCan::FilterConfig</title>
<polygon fill="white" stroke="transparent" points="-4,4 -4,-299 157,-299 157,4 -4,4"/>
<!-- Node1 -->
<g id="node1" class="node">
<title>Node1</title>
<g id="a_node1"><a xlink:title=" ">
<polygon fill="#bfbfbf" stroke="black" points="0,-0.5 0,-134.5 153,-134.5 153,-0.5 0,-0.5"/>
<text text-anchor="middle" x="76.5" y="-122.5" font-family="Helvetica,sans-Serif" font-size="10.00">moteus::FDCan::FilterConfig</text>
<polyline fill="none" stroke="black" points="0,-115.5 153,-115.5 "/>
<text text-anchor="start" x="8" y="-103.5" font-family="Helvetica,sans-Serif" font-size="10.00">+ FilterAction global</text>
<text text-anchor="start" x="8" y="-92.5" font-family="Helvetica,sans-Serif" font-size="10.00">_std_action</text>
<text text-anchor="start" x="8" y="-81.5" font-family="Helvetica,sans-Serif" font-size="10.00">+ FilterAction global</text>
<text text-anchor="start" x="8" y="-70.5" font-family="Helvetica,sans-Serif" font-size="10.00">_ext_action</text>
<text text-anchor="start" x="8" y="-59.5" font-family="Helvetica,sans-Serif" font-size="10.00">+ FilterAction global</text>
<text text-anchor="start" x="8" y="-48.5" font-family="Helvetica,sans-Serif" font-size="10.00">_remote_std_action</text>
<text text-anchor="start" x="8" y="-37.5" font-family="Helvetica,sans-Serif" font-size="10.00">+ FilterAction global</text>
<text text-anchor="start" x="8" y="-26.5" font-family="Helvetica,sans-Serif" font-size="10.00">_remote_ext_action</text>
<polyline fill="none" stroke="black" points="0,-19.5 153,-19.5 "/>
<text text-anchor="middle" x="76.5" y="-7.5" font-family="Helvetica,sans-Serif" font-size="10.00"> </text>
</a>
</g>
</g>
<!-- Node2 -->
<g id="node2" class="node">
<title>Node2</title>
<g id="a_node2"><a xlink:href="../../d9/d9c/structmoteus_1_1FDCan_1_1Filter.html" target="_top" xlink:title=" ">
<polygon fill="white" stroke="black" points="15.5,-193.5 15.5,-294.5 137.5,-294.5 137.5,-193.5 15.5,-193.5"/>
<text text-anchor="middle" x="76.5" y="-282.5" font-family="Helvetica,sans-Serif" font-size="10.00">moteus::FDCan::Filter</text>
<polyline fill="none" stroke="black" points="15.5,-275.5 137.5,-275.5 "/>
<text text-anchor="start" x="23.5" y="-263.5" font-family="Helvetica,sans-Serif" font-size="10.00">+ uint32_t id1</text>
<text text-anchor="start" x="23.5" y="-252.5" font-family="Helvetica,sans-Serif" font-size="10.00">+ uint32_t id2</text>
<text text-anchor="start" x="23.5" y="-241.5" font-family="Helvetica,sans-Serif" font-size="10.00">+ FilterMode mode</text>
<text text-anchor="start" x="23.5" y="-230.5" font-family="Helvetica,sans-Serif" font-size="10.00">+ FilterAction action</text>
<text text-anchor="start" x="23.5" y="-219.5" font-family="Helvetica,sans-Serif" font-size="10.00">+ FilterType type</text>
<polyline fill="none" stroke="black" points="15.5,-212.5 137.5,-212.5 "/>
<text text-anchor="middle" x="76.5" y="-200.5" font-family="Helvetica,sans-Serif" font-size="10.00"> </text>
</a>
</g>
</g>
<!-- Node2&#45;&gt;Node1 -->
<g id="edge1" class="edge">
<title>Node2&#45;&gt;Node1</title>
<path fill="none" stroke="#404040" d="M76.5,-193.46C76.5,-178.93 76.5,-162.67 76.5,-146.8"/>
<polygon fill="none" stroke="#404040" points="76.5,-146.79 72.5,-140.79 76.5,-134.79 80.5,-140.79 76.5,-146.79"/>
<text text-anchor="middle" x="96" y="-167" font-family="Helvetica,sans-Serif" font-size="10.00"> +begin</text>
<text text-anchor="middle" x="96" y="-156" font-family="Helvetica,sans-Serif" font-size="10.00">+end</text>
</g>
</g>
</svg>
