<?xml version="1.0" encoding="UTF-8" standalone="no"?>
<!DOCTYPE svg PUBLIC "-//W3C//DTD SVG 1.1//EN"
 "http://www.w3.org/Graphics/SVG/1.1/DTD/svg11.dtd">
<!-- Generated by graphviz version 2.43.0 (0)
 -->
<!-- Title: moteus::FDCan::Options Pages: 1 -->
<!--zoomable 551 -->
<svg id="main" version="1.1" xmlns="http://www.w3.org/2000/svg" xmlns:xlink="http://www.w3.org/1999/xlink" xml:space="preserve" onload="init(evt)">
<style type="text/css"><![CDATA[
.edge:hover path { stroke: red; }
.edge:hover polygon { stroke: red; fill: red; }
]]></style>
<script type="text/javascript"><![CDATA[
var edges = document.getElementsByTagName('g');
if (edges && edges.length) {
  for (var i=0;i<edges.length;i++) {
    if (edges[i].id.substr(0,4)=='edge') {
      edges[i].setAttribute('class','edge');
    }
  }
}
]]></script>
        <defs>
                <circle id="rim" cx="0" cy="0" r="7"/>
                <circle id="rim2" cx="0" cy="0" r="3.5"/>
                <g id="zoomPlus">
                        <use xlink:href="#rim" fill="#404040">
                                <set attributeName="fill" to="#808080" begin="zoomplus.mouseover" end="zoomplus.mouseout"/>
                        </use>
                        <path d="M-4,0h8M0,-4v8" fill="none" stroke="white" stroke-width="1.5" pointer-events="none"/>
                </g>
                <g id="zoomMin">
                        <use xlink:href="#rim" fill="#404040">
                                <set attributeName="fill" to="#808080" begin="zoomminus.mouseover" end="zoomminus.mouseout"/>
                        </use>
                        <path d="M-4,0h8" fill="none" stroke="white" stroke-width="1.5" pointer-events="none"/>
                </g>
                <g id="dirArrow">
                        <path fill="none" stroke="white" stroke-width="1.5" d="M0,-3.0v7 M-2.5,-0.5L0,-3.0L2.5,-0.5"/>
                </g>
               <g id="resetDef">
                       <use xlink:href="#rim2" fill="#404040">
                               <set attributeName="fill" to="#808080" begin="reset.mouseover" end="reset.mouseout"/>
                       </use>
               </g>
        </defs>

<script type="text/javascript">
var viewWidth = 308;
var viewHeight = 551;
var sectionId = 'dynsection-0';
</script>
<script xlink:href="../../svgpan.js"/>
<svg id="graph" class="graph">
<g id="viewport">
<title>moteus::FDCan::Options</title>
<polygon fill="white" stroke="transparent" points="-4,4 -4,-547 303.5,-547 303.5,4 -4,4"/>
<!-- Node1 -->
<g id="node1" class="node">
<title>Node1</title>
<g id="a_node1"><a xlink:title=" ">
<polygon fill="#bfbfbf" stroke="black" points="66,-0.5 66,-189.5 245,-189.5 245,-0.5 66,-0.5"/>
<text text-anchor="middle" x="155.5" y="-177.5" font-family="Helvetica,sans-Serif" font-size="10.00">moteus::FDCan::Options</text>
<polyline fill="none" stroke="black" points="66,-170.5 245,-170.5 "/>
<text text-anchor="start" x="74" y="-158.5" font-family="Helvetica,sans-Serif" font-size="10.00">+ PinName td</text>
<text text-anchor="start" x="74" y="-147.5" font-family="Helvetica,sans-Serif" font-size="10.00">+ PinName rd</text>
<text text-anchor="start" x="74" y="-136.5" font-family="Helvetica,sans-Serif" font-size="10.00">+ int slow_bitrate</text>
<text text-anchor="start" x="74" y="-125.5" font-family="Helvetica,sans-Serif" font-size="10.00">+ int fast_bitrate</text>
<text text-anchor="start" x="74" y="-114.5" font-family="Helvetica,sans-Serif" font-size="10.00">+ bool automatic_retransmission</text>
<text text-anchor="start" x="74" y="-103.5" font-family="Helvetica,sans-Serif" font-size="10.00">+ bool remote_frame</text>
<text text-anchor="start" x="74" y="-92.5" font-family="Helvetica,sans-Serif" font-size="10.00">+ bool fdcan_frame</text>
<text text-anchor="start" x="74" y="-81.5" font-family="Helvetica,sans-Serif" font-size="10.00">+ bool bitrate_switch</text>
<text text-anchor="start" x="74" y="-70.5" font-family="Helvetica,sans-Serif" font-size="10.00">+ bool restricted_mode</text>
<text text-anchor="start" x="74" y="-59.5" font-family="Helvetica,sans-Serif" font-size="10.00">+ bool bus_monitor</text>
<text text-anchor="start" x="74" y="-48.5" font-family="Helvetica,sans-Serif" font-size="10.00">+ bool delay_compensation</text>
<text text-anchor="start" x="74" y="-37.5" font-family="Helvetica,sans-Serif" font-size="10.00">+ uint32_t tdc_offset</text>
<text text-anchor="start" x="74" y="-26.5" font-family="Helvetica,sans-Serif" font-size="10.00">+ uint32_t tdc_filter</text>
<polyline fill="none" stroke="black" points="66,-19.5 245,-19.5 "/>
<text text-anchor="start" x="74" y="-7.5" font-family="Helvetica,sans-Serif" font-size="10.00">+ Options()</text>
</a>
</g>
</g>
<!-- Node2 -->
<g id="node2" class="node">
<title>Node2</title>
<g id="a_node2"><a xlink:href="../../df/ddb/structmoteus_1_1FDCan_1_1FilterConfig.html" target="_top" xlink:title=" ">
<polygon fill="white" stroke="black" points="0,-248.5 0,-382.5 153,-382.5 153,-248.5 0,-248.5"/>
<text text-anchor="middle" x="76.5" y="-370.5" font-family="Helvetica,sans-Serif" font-size="10.00">moteus::FDCan::FilterConfig</text>
<polyline fill="none" stroke="black" points="0,-363.5 153,-363.5 "/>
<text text-anchor="start" x="8" y="-351.5" font-family="Helvetica,sans-Serif" font-size="10.00">+ FilterAction global</text>
<text text-anchor="start" x="8" y="-340.5" font-family="Helvetica,sans-Serif" font-size="10.00">_std_action</text>
<text text-anchor="start" x="8" y="-329.5" font-family="Helvetica,sans-Serif" font-size="10.00">+ FilterAction global</text>
<text text-anchor="start" x="8" y="-318.5" font-family="Helvetica,sans-Serif" font-size="10.00">_ext_action</text>
<text text-anchor="start" x="8" y="-307.5" font-family="Helvetica,sans-Serif" font-size="10.00">+ FilterAction global</text>
<text text-anchor="start" x="8" y="-296.5" font-family="Helvetica,sans-Serif" font-size="10.00">_remote_std_action</text>
<text text-anchor="start" x="8" y="-285.5" font-family="Helvetica,sans-Serif" font-size="10.00">+ FilterAction global</text>
<text text-anchor="start" x="8" y="-274.5" font-family="Helvetica,sans-Serif" font-size="10.00">_remote_ext_action</text>
<polyline fill="none" stroke="black" points="0,-267.5 153,-267.5 "/>
<text text-anchor="middle" x="76.5" y="-255.5" font-family="Helvetica,sans-Serif" font-size="10.00"> </text>
</a>
</g>
</g>
<!-- Node2&#45;&gt;Node1 -->
<g id="edge1" class="edge">
<title>Node2&#45;&gt;Node1</title>
<path fill="none" stroke="#404040" d="M100.42,-248.35C105.79,-233.49 111.62,-217.37 117.41,-201.35"/>
<polygon fill="none" stroke="#404040" points="117.53,-201.02 115.81,-194.02 121.61,-189.73 123.33,-196.74 117.53,-201.02"/>
<text text-anchor="middle" x="134.5" y="-216.5" font-family="Helvetica,sans-Serif" font-size="10.00"> +filters</text>
</g>
<!-- Node3 -->
<g id="node3" class="node">
<title>Node3</title>
<g id="a_node3"><a xlink:href="../../d9/d9c/structmoteus_1_1FDCan_1_1Filter.html" target="_top" xlink:title=" ">
<polygon fill="white" stroke="black" points="15.5,-441.5 15.5,-542.5 137.5,-542.5 137.5,-441.5 15.5,-441.5"/>
<text text-anchor="middle" x="76.5" y="-530.5" font-family="Helvetica,sans-Serif" font-size="10.00">moteus::FDCan::Filter</text>
<polyline fill="none" stroke="black" points="15.5,-523.5 137.5,-523.5 "/>
<text text-anchor="start" x="23.5" y="-511.5" font-family="Helvetica,sans-Serif" font-size="10.00">+ uint32_t id1</text>
<text text-anchor="start" x="23.5" y="-500.5" font-family="Helvetica,sans-Serif" font-size="10.00">+ uint32_t id2</text>
<text text-anchor="start" x="23.5" y="-489.5" font-family="Helvetica,sans-Serif" font-size="10.00">+ FilterMode mode</text>
<text text-anchor="start" x="23.5" y="-478.5" font-family="Helvetica,sans-Serif" font-size="10.00">+ FilterAction action</text>
<text text-anchor="start" x="23.5" y="-467.5" font-family="Helvetica,sans-Serif" font-size="10.00">+ FilterType type</text>
<polyline fill="none" stroke="black" points="15.5,-460.5 137.5,-460.5 "/>
<text text-anchor="middle" x="76.5" y="-448.5" font-family="Helvetica,sans-Serif" font-size="10.00"> </text>
</a>
</g>
</g>
<!-- Node3&#45;&gt;Node2 -->
<g id="edge2" class="edge">
<title>Node3&#45;&gt;Node2</title>
<path fill="none" stroke="#404040" d="M76.5,-441.46C76.5,-426.93 76.5,-410.67 76.5,-394.8"/>
<polygon fill="none" stroke="#404040" points="76.5,-394.79 72.5,-388.79 76.5,-382.79 80.5,-388.79 76.5,-394.79"/>
<text text-anchor="middle" x="96" y="-415" font-family="Helvetica,sans-Serif" font-size="10.00"> +begin</text>
<text text-anchor="middle" x="96" y="-404" font-family="Helvetica,sans-Serif" font-size="10.00">+end</text>
</g>
<!-- Node4 -->
<g id="node4" class="node">
<title>Node4</title>
<g id="a_node4"><a xlink:href="../../df/dbd/structmoteus_1_1FDCan_1_1Rate.html" target="_top" xlink:title=" ">
<polygon fill="white" stroke="black" points="171.5,-270.5 171.5,-360.5 299.5,-360.5 299.5,-270.5 171.5,-270.5"/>
<text text-anchor="middle" x="235.5" y="-348.5" font-family="Helvetica,sans-Serif" font-size="10.00">moteus::FDCan::Rate</text>
<polyline fill="none" stroke="black" points="171.5,-341.5 299.5,-341.5 "/>
<text text-anchor="start" x="179.5" y="-329.5" font-family="Helvetica,sans-Serif" font-size="10.00">+ int prescaler</text>
<text text-anchor="start" x="179.5" y="-318.5" font-family="Helvetica,sans-Serif" font-size="10.00">+ int sync_jump_width</text>
<text text-anchor="start" x="179.5" y="-307.5" font-family="Helvetica,sans-Serif" font-size="10.00">+ int time_seg1</text>
<text text-anchor="start" x="179.5" y="-296.5" font-family="Helvetica,sans-Serif" font-size="10.00">+ int time_seg2</text>
<polyline fill="none" stroke="black" points="171.5,-289.5 299.5,-289.5 "/>
<text text-anchor="middle" x="235.5" y="-277.5" font-family="Helvetica,sans-Serif" font-size="10.00"> </text>
</a>
</g>
</g>
<!-- Node4&#45;&gt;Node1 -->
<g id="edge3" class="edge">
<title>Node4&#45;&gt;Node1</title>
<path fill="none" stroke="#404040" d="M219.31,-270.28C211.98,-250.26 202.97,-225.65 194.06,-201.31"/>
<polygon fill="none" stroke="#404040" points="193.96,-201.05 188.14,-196.79 189.84,-189.78 195.66,-194.04 193.96,-201.05"/>
<text text-anchor="middle" x="246" y="-222" font-family="Helvetica,sans-Serif" font-size="10.00"> +fdrate_override</text>
<text text-anchor="middle" x="246" y="-211" font-family="Helvetica,sans-Serif" font-size="10.00">+rate_override</text>
</g>
</g>
</svg>
        <g id="navigator" transform="translate(0 0)" fill="#404254">
                <rect fill="#f2f5e9" fill-opacity="0.5" stroke="#606060" stroke-width=".5" x="0" y="0" width="60" height="60"/>
                <use id="zoomplus" xlink:href="#zoomPlus" x="17" y="9" onmousedown="handleZoom(evt,'in')"/>
                <use id="zoomminus" xlink:href="#zoomMin" x="42" y="9" onmousedown="handleZoom(evt,'out')"/>
                <use id="reset" xlink:href="#resetDef" x="30" y="36" onmousedown="handleReset()"/>
                <g id="arrowUp" xlink:href="#dirArrow" transform="translate(30 24)" onmousedown="handlePan(0,-1)">
                  <use xlink:href="#rim" fill="#404040">
                        <set attributeName="fill" to="#808080" begin="arrowUp.mouseover" end="arrowUp.mouseout"/>
                  </use>
                  <path fill="none" stroke="white" stroke-width="1.5" d="M0,-3.0v7 M-2.5,-0.5L0,-3.0L2.5,-0.5"/>
                </g>
                <g id="arrowRight" xlink:href="#dirArrow" transform="rotate(90) translate(36 -43)" onmousedown="handlePan(1,0)">
                  <use xlink:href="#rim" fill="#404040">
                        <set attributeName="fill" to="#808080" begin="arrowRight.mouseover" end="arrowRight.mouseout"/>
                  </use>
                  <path fill="none" stroke="white" stroke-width="1.5" d="M0,-3.0v7 M-2.5,-0.5L0,-3.0L2.5,-0.5"/>
                </g>
                <g id="arrowDown" xlink:href="#dirArrow" transform="rotate(180) translate(-30 -48)" onmousedown="handlePan(0,1)">
                  <use xlink:href="#rim" fill="#404040">
                        <set attributeName="fill" to="#808080" begin="arrowDown.mouseover" end="arrowDown.mouseout"/>
                  </use>
                  <path fill="none" stroke="white" stroke-width="1.5" d="M0,-3.0v7 M-2.5,-0.5L0,-3.0L2.5,-0.5"/>
                </g>
                <g id="arrowLeft" xlink:href="#dirArrow" transform="rotate(270) translate(-36 17)" onmousedown="handlePan(-1,0)">
                  <use xlink:href="#rim" fill="#404040">
                        <set attributeName="fill" to="#808080" begin="arrowLeft.mouseover" end="arrowLeft.mouseout"/>
                  </use>
                  <path fill="none" stroke="white" stroke-width="1.5" d="M0,-3.0v7 M-2.5,-0.5L0,-3.0L2.5,-0.5"/>
                </g>
        </g>
        <svg viewBox="0 0 15 15" width="100%" height="30px" preserveAspectRatio="xMaxYMin meet">
         <g id="arrow_out" transform="scale(0.3 0.3)">
          <a xlink:href="structmoteus_1_1FDCan_1_1Options__coll__graph_org.svg" target="_base">
           <rect id="button" ry="5" rx="5" y="6" x="6" height="38" width="38"
                fill="#f2f5e9" fill-opacity="0.5" stroke="#606060" stroke-width="1.0"/>
           <path id="arrow"
             d="M 11.500037,31.436501 C 11.940474,20.09759 22.043105,11.32322 32.158766,21.979434 L 37.068811,17.246167 C 37.068811,17.246167 37.088388,32 37.088388,32 L 22.160133,31.978069 C 22.160133,31.978069 26.997745,27.140456 26.997745,27.140456 C 18.528582,18.264221 13.291696,25.230495 11.500037,31.436501 z"
             style="fill:#404040;"/>
          </a>
         </g>
        </svg>
</svg>
