<?xml version="1.0" encoding="UTF-8" standalone="no"?>
<!DOCTYPE svg PUBLIC "-//W3C//DTD SVG 1.1//EN"
 "http://www.w3.org/Graphics/SVG/1.1/DTD/svg11.dtd">
<!-- Generated by graphviz version 2.43.0 (0)
 -->
<!-- Title: moteus::AuxADC Pages: 1 -->
<svg width="164pt" height="314pt"
 viewBox="0.00 0.00 164.00 314.00" xmlns="http://www.w3.org/2000/svg" xmlns:xlink="http://www.w3.org/1999/xlink">
<g id="graph0" class="graph" transform="scale(1 1) rotate(0) translate(4 310)">
<title>moteus::AuxADC</title>
<polygon fill="white" stroke="transparent" points="-4,4 -4,-310 160,-310 160,4 -4,4"/>
<!-- Node1 -->
<g id="node1" class="node">
<title>Node1</title>
<g id="a_node1"><a xlink:title=" ">
<polygon fill="#bfbfbf" stroke="black" points="0,-0.5 0,-134.5 156,-134.5 156,-0.5 0,-0.5"/>
<text text-anchor="middle" x="78" y="-122.5" font-family="Helvetica,sans-Serif" font-size="10.00">moteus::AuxADC</text>
<polyline fill="none" stroke="black" points="0,-115.5 156,-115.5 "/>
<text text-anchor="start" x="8" y="-103.5" font-family="Helvetica,sans-Serif" font-size="10.00">+ static constexpr int</text>
<text text-anchor="start" x="8" y="-92.5" font-family="Helvetica,sans-Serif" font-size="10.00"> kMaxAdcs</text>
<text text-anchor="start" x="8" y="-81.5" font-family="Helvetica,sans-Serif" font-size="10.00">+ static constexpr int</text>
<text text-anchor="start" x="8" y="-70.5" font-family="Helvetica,sans-Serif" font-size="10.00"> kMaxPins</text>
<polyline fill="none" stroke="black" points="0,-63.5 156,-63.5 "/>
<text text-anchor="start" x="8" y="-51.5" font-family="Helvetica,sans-Serif" font-size="10.00">+ AuxADC()</text>
<text text-anchor="start" x="8" y="-40.5" font-family="Helvetica,sans-Serif" font-size="10.00">+ void ISR_StartSample</text>
<text text-anchor="start" x="8" y="-29.5" font-family="Helvetica,sans-Serif" font-size="10.00">() MOTEUS_CCM_ATTRIBUTE</text>
<text text-anchor="start" x="8" y="-18.5" font-family="Helvetica,sans-Serif" font-size="10.00">+ void ISR_EndSample</text>
<text text-anchor="start" x="8" y="-7.5" font-family="Helvetica,sans-Serif" font-size="10.00">() MOTEUS_CCM_ATTRIBUTE</text>
</a>
</g>
</g>
<!-- Node2 -->
<g id="node2" class="node">
<title>Node2</title>
<g id="a_node2"><a xlink:href="$d7/d0f/structmoteus_1_1AuxADC_1_1AuxInfo.html" xlink:title=" ">
<polygon fill="white" stroke="black" points="6.5,-182.5 6.5,-305.5 149.5,-305.5 149.5,-182.5 6.5,-182.5"/>
<text text-anchor="middle" x="78" y="-293.5" font-family="Helvetica,sans-Serif" font-size="10.00">moteus::AuxADC::AuxInfo</text>
<polyline fill="none" stroke="black" points="6.5,-286.5 149.5,-286.5 "/>
<text text-anchor="start" x="14.5" y="-274.5" font-family="Helvetica,sans-Serif" font-size="10.00">+ std::array&lt; PinConfig,</text>
<text text-anchor="start" x="14.5" y="-263.5" font-family="Helvetica,sans-Serif" font-size="10.00"> kMaxPins &gt; config</text>
<text text-anchor="start" x="14.5" y="-252.5" font-family="Helvetica,sans-Serif" font-size="10.00">+ std::array&lt; uint16</text>
<text text-anchor="start" x="14.5" y="-241.5" font-family="Helvetica,sans-Serif" font-size="10.00">_t, kMaxPins &gt; value</text>
<text text-anchor="start" x="14.5" y="-230.5" font-family="Helvetica,sans-Serif" font-size="10.00">+ mjlib::base::inplace</text>
<text text-anchor="start" x="14.5" y="-219.5" font-family="Helvetica,sans-Serif" font-size="10.00">_function&lt; void()&gt; config</text>
<text text-anchor="start" x="14.5" y="-208.5" font-family="Helvetica,sans-Serif" font-size="10.00">_update</text>
<polyline fill="none" stroke="black" points="6.5,-201.5 149.5,-201.5 "/>
<text text-anchor="middle" x="78" y="-189.5" font-family="Helvetica,sans-Serif" font-size="10.00"> </text>
</a>
</g>
</g>
<!-- Node2&#45;&gt;Node1 -->
<g id="edge1" class="edge">
<title>Node2&#45;&gt;Node1</title>
<path fill="none" stroke="#404040" d="M78,-182.46C78,-170.99 78,-158.84 78,-146.91"/>
<polygon fill="none" stroke="#404040" points="78,-146.59 74,-140.59 78,-134.59 82,-140.59 78,-146.59"/>
<text text-anchor="middle" x="105" y="-156" font-family="Helvetica,sans-Serif" font-size="10.00"> +aux_info</text>
</g>
</g>
</svg>
