<?xml version="1.0" encoding="UTF-8" standalone="no"?>
<!DOCTYPE svg PUBLIC "-//W3C//DTD SVG 1.1//EN"
 "http://www.w3.org/Graphics/SVG/1.1/DTD/svg11.dtd">
<!-- Generated by graphviz version 2.43.0 (0)
 -->
<!-- Title: moteus::FirmwareInfo::Impl Pages: 1 -->
<svg width="184pt" height="270pt"
 viewBox="0.00 0.00 184.00 270.00" xmlns="http://www.w3.org/2000/svg" xmlns:xlink="http://www.w3.org/1999/xlink">
<g id="graph0" class="graph" transform="scale(1 1) rotate(0) translate(4 266)">
<title>moteus::FirmwareInfo::Impl</title>
<polygon fill="white" stroke="transparent" points="-4,4 -4,-266 180,-266 180,4 -4,4"/>
<!-- Node1 -->
<g id="node1" class="node">
<title>Node1</title>
<g id="a_node1"><a xlink:title=" ">
<polygon fill="#bfbfbf" stroke="black" points="0,-0.5 0,-101.5 176,-101.5 176,-0.5 0,-0.5"/>
<text text-anchor="start" x="8" y="-89.5" font-family="Helvetica,sans-Serif" font-size="10.00">moteus::FirmwareInfo</text>
<text text-anchor="middle" x="88" y="-78.5" font-family="Helvetica,sans-Serif" font-size="10.00">::Impl</text>
<polyline fill="none" stroke="black" points="0,-71.5 176,-71.5 "/>
<text text-anchor="middle" x="88" y="-59.5" font-family="Helvetica,sans-Serif" font-size="10.00"> </text>
<polyline fill="none" stroke="black" points="0,-52.5 176,-52.5 "/>
<text text-anchor="start" x="8" y="-40.5" font-family="Helvetica,sans-Serif" font-size="10.00">+ Impl(mjlib::micro</text>
<text text-anchor="start" x="8" y="-29.5" font-family="Helvetica,sans-Serif" font-size="10.00">::TelemetryManager &amp;telemetry,</text>
<text text-anchor="start" x="8" y="-18.5" font-family="Helvetica,sans-Serif" font-size="10.00"> uint32_t version, uint32</text>
<text text-anchor="start" x="8" y="-7.5" font-family="Helvetica,sans-Serif" font-size="10.00">_t model)</text>
</a>
</g>
</g>
<!-- Node2 -->
<g id="node2" class="node">
<title>Node2</title>
<g id="a_node2"><a xlink:title=" ">
<polygon fill="white" stroke="#bfbfbf" points="27,-149.5 27,-261.5 149,-261.5 149,-149.5 27,-149.5"/>
<text text-anchor="middle" x="88" y="-249.5" font-family="Helvetica,sans-Serif" font-size="10.00">anonymous:+info_</text>
<polyline fill="none" stroke="#bfbfbf" points="27,-242.5 149,-242.5 "/>
<text text-anchor="start" x="35" y="-230.5" font-family="Helvetica,sans-Serif" font-size="10.00">+ uint32_t version</text>
<text text-anchor="start" x="35" y="-219.5" font-family="Helvetica,sans-Serif" font-size="10.00">+ std::array&lt; uint32</text>
<text text-anchor="start" x="35" y="-208.5" font-family="Helvetica,sans-Serif" font-size="10.00">_t, 3 &gt; serial_number</text>
<text text-anchor="start" x="35" y="-197.5" font-family="Helvetica,sans-Serif" font-size="10.00">+ uint32_t model</text>
<text text-anchor="start" x="35" y="-186.5" font-family="Helvetica,sans-Serif" font-size="10.00">+ uint8_t family</text>
<text text-anchor="start" x="35" y="-175.5" font-family="Helvetica,sans-Serif" font-size="10.00">+ uint8_t hwrev</text>
<polyline fill="none" stroke="#bfbfbf" points="27,-168.5 149,-168.5 "/>
<text text-anchor="middle" x="88" y="-156.5" font-family="Helvetica,sans-Serif" font-size="10.00"> </text>
</a>
</g>
</g>
<!-- Node2&#45;&gt;Node1 -->
<g id="edge1" class="edge">
<title>Node2&#45;&gt;Node1</title>
<path fill="none" stroke="#404040" d="M88,-149.44C88,-137.86 88,-125.56 88,-113.74"/>
<polygon fill="none" stroke="#404040" points="88,-113.66 84,-107.66 88,-101.66 92,-107.66 88,-113.66"/>
<text text-anchor="middle" x="106" y="-123" font-family="Helvetica,sans-Serif" font-size="10.00"> +info_</text>
</g>
</g>
</svg>
