<?xml version="1.0" encoding="UTF-8" standalone="no"?>
<!DOCTYPE svg PUBLIC "-//W3C//DTD SVG 1.1//EN"
 "http://www.w3.org/Graphics/SVG/1.1/DTD/svg11.dtd">
<!-- Generated by graphviz version 2.43.0 (0)
 -->
<!-- Title: moteus::aux::AuxHardwareConfig Pages: 1 -->
<svg width="173pt" height="215pt"
 viewBox="0.00 0.00 173.00 215.00" xmlns="http://www.w3.org/2000/svg" xmlns:xlink="http://www.w3.org/1999/xlink">
<g id="graph0" class="graph" transform="scale(1 1) rotate(0) translate(4 211)">
<title>moteus::aux::AuxHardwareConfig</title>
<polygon fill="white" stroke="transparent" points="-4,4 -4,-211 169,-211 169,4 -4,4"/>
<!-- Node1 -->
<g id="node1" class="node">
<title>Node1</title>
<g id="a_node1"><a xlink:title=" ">
<polygon fill="#bfbfbf" stroke="black" points="6,-0.5 6,-79.5 159,-79.5 159,-0.5 6,-0.5"/>
<text text-anchor="start" x="14" y="-67.5" font-family="Helvetica,sans-Serif" font-size="10.00">moteus::aux::AuxHardware</text>
<text text-anchor="middle" x="82.5" y="-56.5" font-family="Helvetica,sans-Serif" font-size="10.00">Config</text>
<polyline fill="none" stroke="black" points="6,-49.5 159,-49.5 "/>
<text text-anchor="start" x="14" y="-37.5" font-family="Helvetica,sans-Serif" font-size="10.00">+ std::array&lt; AuxPinConfig,</text>
<text text-anchor="start" x="14" y="-26.5" font-family="Helvetica,sans-Serif" font-size="10.00"> 8 &gt; pins</text>
<polyline fill="none" stroke="black" points="6,-19.5 159,-19.5 "/>
<text text-anchor="middle" x="82.5" y="-7.5" font-family="Helvetica,sans-Serif" font-size="10.00"> </text>
</a>
</g>
</g>
<!-- Node2 -->
<g id="node2" class="node">
<title>Node2</title>
<g id="a_node2"><a xlink:href="$df/d51/structmoteus_1_1aux_1_1AuxExtraOptions.html" xlink:title=" ">
<polygon fill="white" stroke="black" points="0,-127.5 0,-206.5 165,-206.5 165,-127.5 0,-127.5"/>
<text text-anchor="middle" x="82.5" y="-194.5" font-family="Helvetica,sans-Serif" font-size="10.00">moteus::aux::AuxExtraOptions</text>
<polyline fill="none" stroke="black" points="0,-187.5 165,-187.5 "/>
<text text-anchor="start" x="8" y="-175.5" font-family="Helvetica,sans-Serif" font-size="10.00">+ PinName i2c_pullup</text>
<text text-anchor="start" x="8" y="-164.5" font-family="Helvetica,sans-Serif" font-size="10.00">+ PinName rs422_re</text>
<text text-anchor="start" x="8" y="-153.5" font-family="Helvetica,sans-Serif" font-size="10.00">+ PinName rs422_de</text>
<polyline fill="none" stroke="black" points="0,-146.5 165,-146.5 "/>
<text text-anchor="middle" x="82.5" y="-134.5" font-family="Helvetica,sans-Serif" font-size="10.00"> </text>
</a>
</g>
</g>
<!-- Node2&#45;&gt;Node1 -->
<g id="edge1" class="edge">
<title>Node2&#45;&gt;Node1</title>
<path fill="none" stroke="#404040" d="M82.5,-127.48C82.5,-116.19 82.5,-103.67 82.5,-91.75"/>
<polygon fill="none" stroke="#404040" points="82.5,-91.61 78.5,-85.61 82.5,-79.61 86.5,-85.61 82.5,-91.61"/>
<text text-anchor="middle" x="106.5" y="-101" font-family="Helvetica,sans-Serif" font-size="10.00"> +options</text>
</g>
</g>
</svg>
