<?xml version="1.0" encoding="UTF-8" standalone="no"?>
<!DOCTYPE svg PUBLIC "-//W3C//DTD SVG 1.1//EN"
 "http://www.w3.org/Graphics/SVG/1.1/DTD/svg11.dtd">
<!-- Generated by graphviz version 2.43.0 (0)
 -->
<!-- Title: moteus::SystemInfo::Impl Pages: 1 -->
<svg width="156pt" height="380pt"
 viewBox="0.00 0.00 156.00 380.00" xmlns="http://www.w3.org/2000/svg" xmlns:xlink="http://www.w3.org/1999/xlink">
<g id="graph0" class="graph" transform="scale(1 1) rotate(0) translate(4 376)">
<title>moteus::SystemInfo::Impl</title>
<polygon fill="white" stroke="transparent" points="-4,4 -4,-376 152,-376 152,4 -4,4"/>
<!-- Node1 -->
<g id="node1" class="node">
<title>Node1</title>
<g id="a_node1"><a xlink:title=" ">
<polygon fill="#bfbfbf" stroke="black" points="0,-0.5 0,-211.5 148,-211.5 148,-0.5 0,-0.5"/>
<text text-anchor="start" x="8" y="-199.5" font-family="Helvetica,sans-Serif" font-size="10.00">moteus::SystemInfo</text>
<text text-anchor="middle" x="74" y="-188.5" font-family="Helvetica,sans-Serif" font-size="10.00">::Impl</text>
<polyline fill="none" stroke="black" points="0,-181.5 148,-181.5 "/>
<text text-anchor="start" x="8" y="-169.5" font-family="Helvetica,sans-Serif" font-size="10.00">+ mjlib::micro::Pool</text>
<text text-anchor="start" x="8" y="-158.5" font-family="Helvetica,sans-Serif" font-size="10.00"> &amp; pool_</text>
<text text-anchor="start" x="8" y="-147.5" font-family="Helvetica,sans-Serif" font-size="10.00">+ uint8_t ms_count_</text>
<text text-anchor="start" x="8" y="-136.5" font-family="Helvetica,sans-Serif" font-size="10.00">+ uint32_t last_idle</text>
<text text-anchor="start" x="8" y="-125.5" font-family="Helvetica,sans-Serif" font-size="10.00">_count_</text>
<text text-anchor="start" x="8" y="-114.5" font-family="Helvetica,sans-Serif" font-size="10.00">+ mjlib::base::inplace</text>
<text text-anchor="start" x="8" y="-103.5" font-family="Helvetica,sans-Serif" font-size="10.00">_function&lt; void()&gt; data</text>
<text text-anchor="start" x="8" y="-92.5" font-family="Helvetica,sans-Serif" font-size="10.00">_updater_</text>
<polyline fill="none" stroke="black" points="0,-85.5 148,-85.5 "/>
<text text-anchor="start" x="8" y="-73.5" font-family="Helvetica,sans-Serif" font-size="10.00">+ Impl(mjlib::micro</text>
<text text-anchor="start" x="8" y="-62.5" font-family="Helvetica,sans-Serif" font-size="10.00">::Pool &amp;pool, mjlib</text>
<text text-anchor="start" x="8" y="-51.5" font-family="Helvetica,sans-Serif" font-size="10.00">::micro::TelemetryManager</text>
<text text-anchor="start" x="8" y="-40.5" font-family="Helvetica,sans-Serif" font-size="10.00"> &amp;telemetry)</text>
<text text-anchor="start" x="8" y="-29.5" font-family="Helvetica,sans-Serif" font-size="10.00">+ void PollMillsecond()</text>
<text text-anchor="start" x="8" y="-18.5" font-family="Helvetica,sans-Serif" font-size="10.00">+ void SetCanResetCount</text>
<text text-anchor="start" x="8" y="-7.5" font-family="Helvetica,sans-Serif" font-size="10.00">(uint32_t value)</text>
</a>
</g>
</g>
<!-- Node2 -->
<g id="node2" class="node">
<title>Node2</title>
<g id="a_node2"><a xlink:title=" ">
<polygon fill="white" stroke="#bfbfbf" points="3,-259.5 3,-371.5 145,-371.5 145,-259.5 3,-259.5"/>
<text text-anchor="middle" x="74" y="-359.5" font-family="Helvetica,sans-Serif" font-size="10.00">anonymous:+data_</text>
<polyline fill="none" stroke="#bfbfbf" points="3,-352.5 145,-352.5 "/>
<text text-anchor="start" x="11" y="-340.5" font-family="Helvetica,sans-Serif" font-size="10.00">+ uint32_t pool_size</text>
<text text-anchor="start" x="11" y="-329.5" font-family="Helvetica,sans-Serif" font-size="10.00">+ uint32_t pool_available</text>
<text text-anchor="start" x="11" y="-318.5" font-family="Helvetica,sans-Serif" font-size="10.00">+ uint32_t idle_rate</text>
<text text-anchor="start" x="11" y="-307.5" font-family="Helvetica,sans-Serif" font-size="10.00">+ uint32_t can_reset</text>
<text text-anchor="start" x="11" y="-296.5" font-family="Helvetica,sans-Serif" font-size="10.00">_count</text>
<text text-anchor="start" x="11" y="-285.5" font-family="Helvetica,sans-Serif" font-size="10.00">+ uint32_t ms_count</text>
<polyline fill="none" stroke="#bfbfbf" points="3,-278.5 145,-278.5 "/>
<text text-anchor="middle" x="74" y="-266.5" font-family="Helvetica,sans-Serif" font-size="10.00"> </text>
</a>
</g>
</g>
<!-- Node2&#45;&gt;Node1 -->
<g id="edge1" class="edge">
<title>Node2&#45;&gt;Node1</title>
<path fill="none" stroke="#404040" d="M74,-259.44C74,-248.36 74,-236.33 74,-224.04"/>
<polygon fill="none" stroke="#404040" points="74,-223.7 70,-217.7 74,-211.7 78,-217.7 74,-223.7"/>
<text text-anchor="middle" x="93.5" y="-233" font-family="Helvetica,sans-Serif" font-size="10.00"> +data_</text>
</g>
</g>
</svg>
