<?xml version="1.0" encoding="UTF-8" standalone="no"?>
<!DOCTYPE svg PUBLIC "-//W3C//DTD SVG 1.1//EN"
 "http://www.w3.org/Graphics/SVG/1.1/DTD/svg11.dtd">
<!-- Generated by graphviz version 2.43.0 (0)
 -->
<!-- Title: moteus::Stm32BitbangSpi Pages: 1 -->
<svg width="336pt" height="369pt"
 viewBox="0.00 0.00 336.00 369.00" xmlns="http://www.w3.org/2000/svg" xmlns:xlink="http://www.w3.org/1999/xlink">
<g id="graph0" class="graph" transform="scale(1 1) rotate(0) translate(4 365)">
<title>moteus::Stm32BitbangSpi</title>
<polygon fill="white" stroke="transparent" points="-4,4 -4,-365 332,-365 332,4 -4,4"/>
<!-- Node1 -->
<g id="node1" class="node">
<title>Node1</title>
<g id="a_node1"><a xlink:title=" ">
<polygon fill="#bfbfbf" stroke="black" points="84,-0.5 84,-145.5 255,-145.5 255,-0.5 84,-0.5"/>
<text text-anchor="middle" x="169.5" y="-133.5" font-family="Helvetica,sans-Serif" font-size="10.00">moteus::Stm32BitbangSpi</text>
<polyline fill="none" stroke="black" points="84,-126.5 255,-126.5 "/>
<text text-anchor="start" x="92" y="-114.5" font-family="Helvetica,sans-Serif" font-size="10.00">+ DigitalOut cs_</text>
<text text-anchor="start" x="92" y="-103.5" font-family="Helvetica,sans-Serif" font-size="10.00">+ DigitalOut mosi_</text>
<text text-anchor="start" x="92" y="-92.5" font-family="Helvetica,sans-Serif" font-size="10.00">+ DigitalIn miso_</text>
<text text-anchor="start" x="92" y="-81.5" font-family="Helvetica,sans-Serif" font-size="10.00">+ DigitalOut sck_</text>
<text text-anchor="start" x="92" y="-70.5" font-family="Helvetica,sans-Serif" font-size="10.00">+ uint32_t us_delay_</text>
<polyline fill="none" stroke="black" points="84,-63.5 255,-63.5 "/>
<text text-anchor="start" x="92" y="-51.5" font-family="Helvetica,sans-Serif" font-size="10.00">+ Stm32BitbangSpi(Millisecond</text>
<text text-anchor="start" x="92" y="-40.5" font-family="Helvetica,sans-Serif" font-size="10.00">Timer *timer, const Options</text>
<text text-anchor="start" x="92" y="-29.5" font-family="Helvetica,sans-Serif" font-size="10.00"> &amp;options)</text>
<text text-anchor="start" x="92" y="-18.5" font-family="Helvetica,sans-Serif" font-size="10.00">+ uint16_t write(uint16</text>
<text text-anchor="start" x="92" y="-7.5" font-family="Helvetica,sans-Serif" font-size="10.00">_t value)</text>
</a>
</g>
</g>
<!-- Node2 -->
<g id="node2" class="node">
<title>Node2</title>
<g id="a_node2"><a xlink:href="../../d4/d16/classmoteus_1_1MillisecondTimer.html" target="_top" xlink:title=" ">
<polygon fill="white" stroke="black" points="0,-193.5 0,-360.5 167,-360.5 167,-193.5 0,-193.5"/>
<text text-anchor="middle" x="83.5" y="-348.5" font-family="Helvetica,sans-Serif" font-size="10.00">moteus::MillisecondTimer</text>
<polyline fill="none" stroke="black" points="0,-341.5 167,-341.5 "/>
<text text-anchor="middle" x="83.5" y="-329.5" font-family="Helvetica,sans-Serif" font-size="10.00"> </text>
<polyline fill="none" stroke="black" points="0,-322.5 167,-322.5 "/>
<text text-anchor="start" x="8" y="-310.5" font-family="Helvetica,sans-Serif" font-size="10.00">+ MillisecondTimer()</text>
<text text-anchor="start" x="8" y="-299.5" font-family="Helvetica,sans-Serif" font-size="10.00">+ TimerType read_ms()</text>
<text text-anchor="start" x="8" y="-288.5" font-family="Helvetica,sans-Serif" font-size="10.00">+ TimerType read_us()</text>
<text text-anchor="start" x="8" y="-277.5" font-family="Helvetica,sans-Serif" font-size="10.00">+ void wait_ms(uint32</text>
<text text-anchor="start" x="8" y="-266.5" font-family="Helvetica,sans-Serif" font-size="10.00">_t delay_ms)</text>
<text text-anchor="start" x="8" y="-255.5" font-family="Helvetica,sans-Serif" font-size="10.00">+ void wait_us(uint32</text>
<text text-anchor="start" x="8" y="-244.5" font-family="Helvetica,sans-Serif" font-size="10.00">_t delay_us)</text>
<text text-anchor="start" x="8" y="-233.5" font-family="Helvetica,sans-Serif" font-size="10.00">+ void wait_us_helper</text>
<text text-anchor="start" x="8" y="-222.5" font-family="Helvetica,sans-Serif" font-size="10.00">(uint32_t delay_us)</text>
<text text-anchor="start" x="8" y="-211.5" font-family="Helvetica,sans-Serif" font-size="10.00">+ static TimerType subtract</text>
<text text-anchor="start" x="8" y="-200.5" font-family="Helvetica,sans-Serif" font-size="10.00">_us(TimerType a, TimerType b)</text>
</a>
</g>
</g>
<!-- Node2&#45;&gt;Node1 -->
<g id="edge1" class="edge">
<title>Node2&#45;&gt;Node1</title>
<path fill="none" stroke="#404040" d="M118.73,-193.26C123.82,-181.28 129.07,-168.96 134.17,-156.98"/>
<polygon fill="none" stroke="#404040" points="134.3,-156.67 132.97,-149.58 139.01,-145.63 140.34,-152.71 134.3,-156.67"/>
<text text-anchor="middle" x="151" y="-167" font-family="Helvetica,sans-Serif" font-size="10.00"> +timer_</text>
</g>
<!-- Node3 -->
<g id="node3" class="node">
<title>Node3</title>
<g id="a_node3"><a xlink:href="../../d1/ddc/structmoteus_1_1Stm32BitbangSpi_1_1Options.html" target="_top" xlink:title=" ">
<polygon fill="white" stroke="black" points="185,-210 185,-344 328,-344 328,-210 185,-210"/>
<text text-anchor="start" x="193" y="-332" font-family="Helvetica,sans-Serif" font-size="10.00">moteus::Stm32BitbangSpi</text>
<text text-anchor="middle" x="256.5" y="-321" font-family="Helvetica,sans-Serif" font-size="10.00">::Options</text>
<polyline fill="none" stroke="black" points="185,-314 328,-314 "/>
<text text-anchor="start" x="193" y="-302" font-family="Helvetica,sans-Serif" font-size="10.00">+ PinName mosi</text>
<text text-anchor="start" x="193" y="-291" font-family="Helvetica,sans-Serif" font-size="10.00">+ PinName miso</text>
<text text-anchor="start" x="193" y="-280" font-family="Helvetica,sans-Serif" font-size="10.00">+ PinName sck</text>
<text text-anchor="start" x="193" y="-269" font-family="Helvetica,sans-Serif" font-size="10.00">+ PinName cs</text>
<text text-anchor="start" x="193" y="-258" font-family="Helvetica,sans-Serif" font-size="10.00">+ int frequency</text>
<text text-anchor="start" x="193" y="-247" font-family="Helvetica,sans-Serif" font-size="10.00">+ int width</text>
<text text-anchor="start" x="193" y="-236" font-family="Helvetica,sans-Serif" font-size="10.00">+ int mode</text>
<polyline fill="none" stroke="black" points="185,-229 328,-229 "/>
<text text-anchor="middle" x="256.5" y="-217" font-family="Helvetica,sans-Serif" font-size="10.00"> </text>
</a>
</g>
</g>
<!-- Node3&#45;&gt;Node1 -->
<g id="edge2" class="edge">
<title>Node3&#45;&gt;Node1</title>
<path fill="none" stroke="#404040" d="M228.01,-209.86C220.7,-192.88 212.75,-174.41 205.12,-156.71"/>
<polygon fill="none" stroke="#404040" points="205.05,-156.54 199,-152.61 200.3,-145.52 206.35,-149.44 205.05,-156.54"/>
<text text-anchor="middle" x="239" y="-167" font-family="Helvetica,sans-Serif" font-size="10.00"> +options_</text>
</g>
</g>
</svg>
